solid OpenSCAD_Model
  facet normal 0.965926 0 -0.258819
    outer loop
      vertex -5.07302 -17.25 50
      vertex -18.4705 17.25 0
      vertex -5.07302 17.25 50
    endloop
  endfacet
  facet normal 0.965926 0 -0.258819
    outer loop
      vertex -18.4705 17.25 0
      vertex -5.07302 -17.25 50
      vertex -18.4705 -17.25 0
    endloop
  endfacet
  facet normal 0 1 0
    outer loop
      vertex -5.52952 -17.25 0
      vertex -5.07302 -17.25 50
      vertex 7.86794 -17.25 50
    endloop
  endfacet
  facet normal 0 1 0
    outer loop
      vertex -5.07302 -17.25 50
      vertex -5.52952 -17.25 0
      vertex -18.4705 -17.25 0
    endloop
  endfacet
  facet normal 0 -1 0
    outer loop
      vertex -5.52952 17.25 0
      vertex -5.07302 17.25 50
      vertex -18.4705 17.25 0
    endloop
  endfacet
  facet normal 0 -1 -0
    outer loop
      vertex -5.07302 17.25 50
      vertex -5.52952 17.25 0
      vertex 7.86794 17.25 50
    endloop
  endfacet
  facet normal -0.965926 0 0.258819
    outer loop
      vertex -5.52952 -17.25 0
      vertex 7.86794 17.25 50
      vertex -5.52952 17.25 0
    endloop
  endfacet
  facet normal -0.965926 0 0.258819
    outer loop
      vertex 7.86794 17.25 50
      vertex -5.52952 -17.25 0
      vertex 7.86794 -17.25 50
    endloop
  endfacet
  facet normal 0.965926 0 -0.258819
    outer loop
      vertex 18.927 -17.25 50
      vertex 5.52952 17.25 0
      vertex 18.927 17.25 50
    endloop
  endfacet
  facet normal 0.965926 0 -0.258819
    outer loop
      vertex 5.52952 17.25 0
      vertex 18.927 -17.25 50
      vertex 5.52952 -17.25 0
    endloop
  endfacet
  facet normal -0.965926 0 0.258818
    outer loop
      vertex 18.4705 -17.25 0
      vertex 31.8679 17.25 50
      vertex 18.4705 17.25 0
    endloop
  endfacet
  facet normal -0.965926 0 0.258818
    outer loop
      vertex 31.8679 17.25 50
      vertex 18.4705 -17.25 0
      vertex 31.8679 -17.25 50
    endloop
  endfacet
  facet normal 0 -1 0
    outer loop
      vertex 18.4705 17.25 0
      vertex 18.927 17.25 50
      vertex 5.52952 17.25 0
    endloop
  endfacet
  facet normal 0 -1 -0
    outer loop
      vertex 18.927 17.25 50
      vertex 18.4705 17.25 0
      vertex 31.8679 17.25 50
    endloop
  endfacet
  facet normal 0 1 0
    outer loop
      vertex 18.4705 -17.25 0
      vertex 18.927 -17.25 50
      vertex 31.8679 -17.25 50
    endloop
  endfacet
  facet normal 0 1 0
    outer loop
      vertex 18.927 -17.25 50
      vertex 18.4705 -17.25 0
      vertex 5.52952 -17.25 0
    endloop
  endfacet
  facet normal 0.965925 -0.258821 0
    outer loop
      vertex 24.5131 -24.4268 12.5
      vertex 31.0583 0 0
      vertex 31.0583 0 12.5
    endloop
  endfacet
  facet normal 0.965925 -0.258821 0
    outer loop
      vertex 31.0583 0 0
      vertex 24.5131 -24.4268 12.5
      vertex 24.5131 -24.4268 0
    endloop
  endfacet
  facet normal 0 0 -1
    outer loop
      vertex 66.6489 0 12.5
      vertex 122.644 -18.6517 12.5
      vertex 121.329 -23.1763 12.5
    endloop
  endfacet
  facet normal 0 0 -1
    outer loop
      vertex 66.6489 0 12.5
      vertex 121.329 -23.1763 12.5
      vertex 119.733 -27.6093 12.5
    endloop
  endfacet
  facet normal 0 0 -1
    outer loop
      vertex 66.6489 0 12.5
      vertex 119.733 -27.6093 12.5
      vertex 117.862 -31.9334 12.5
    endloop
  endfacet
  facet normal 0 0 -1
    outer loop
      vertex 66.6489 0 12.5
      vertex 117.862 -31.9334 12.5
      vertex 115.723 -36.1315 12.5
    endloop
  endfacet
  facet normal 0 0 -1
    outer loop
      vertex 66.6489 0 12.5
      vertex 115.723 -36.1315 12.5
      vertex 113.325 -40.187 12.5
    endloop
  endfacet
  facet normal 0 0 -1
    outer loop
      vertex 66.6489 0 12.5
      vertex 113.325 -40.187 12.5
      vertex 110.676 -44.0839 12.5
    endloop
  endfacet
  facet normal 0 0 -1
    outer loop
      vertex 66.6489 0 12.5
      vertex 110.676 -44.0839 12.5
      vertex 108.473 -46.9239 12.5
    endloop
  endfacet
  facet normal 0 0 -1
    outer loop
      vertex 122.644 -18.6517 12.5
      vertex 66.6489 0 12.5
      vertex 123.413 -15.2099 12.5
    endloop
  endfacet
  facet normal 0 0 -1
    outer loop
      vertex 24.5131 -24.4268 12.5
      vertex 66.6489 0 12.5
      vertex 108.473 -46.9239 12.5
    endloop
  endfacet
  facet normal -0 0 -1
    outer loop
      vertex 66.6489 0 12.5
      vertex 24.5131 -24.4268 12.5
      vertex 31.0583 0 12.5
    endloop
  endfacet
  facet normal 0 0 -1
    outer loop
      vertex 66.6489 0 12.5
      vertex 122.644 18.6517 12.5
      vertex 123.413 15.2099 12.5
    endloop
  endfacet
  facet normal -0 0 -1
    outer loop
      vertex 122.644 18.6517 12.5
      vertex 66.6489 0 12.5
      vertex 121.329 23.1763 12.5
    endloop
  endfacet
  facet normal -0 0 -1
    outer loop
      vertex 121.329 23.1763 12.5
      vertex 66.6489 0 12.5
      vertex 119.733 27.6093 12.5
    endloop
  endfacet
  facet normal -0 0 -1
    outer loop
      vertex 119.733 27.6093 12.5
      vertex 66.6489 0 12.5
      vertex 117.862 31.9334 12.5
    endloop
  endfacet
  facet normal -0 0 -1
    outer loop
      vertex 117.862 31.9334 12.5
      vertex 66.6489 0 12.5
      vertex 115.723 36.1315 12.5
    endloop
  endfacet
  facet normal -0 0 -1
    outer loop
      vertex 115.723 36.1315 12.5
      vertex 66.6489 0 12.5
      vertex 113.325 40.187 12.5
    endloop
  endfacet
  facet normal -0 0 -1
    outer loop
      vertex 113.325 40.187 12.5
      vertex 66.6489 0 12.5
      vertex 110.676 44.0839 12.5
    endloop
  endfacet
  facet normal -0 0 -1
    outer loop
      vertex 110.676 44.0839 12.5
      vertex 66.6489 0 12.5
      vertex 108.473 46.9239 12.5
    endloop
  endfacet
  facet normal 0 0 -1
    outer loop
      vertex 24.5131 24.4268 12.5
      vertex 66.6489 0 12.5
      vertex 31.0583 0 12.5
    endloop
  endfacet
  facet normal 0 0 -1
    outer loop
      vertex 66.6489 0 12.5
      vertex 24.5131 24.4268 12.5
      vertex 108.473 46.9239 12.5
    endloop
  endfacet
  facet normal -0.258819 -0.965926 0
    outer loop
      vertex 66.6489 0 0
      vertex 123.413 -15.2099 12.5
      vertex 66.6489 0 12.5
    endloop
  endfacet
  facet normal -0.258819 -0.965926 -0
    outer loop
      vertex 123.413 -15.2099 12.5
      vertex 66.6489 0 0
      vertex 123.413 -15.2099 0
    endloop
  endfacet
  facet normal 0.25882 0.965926 -0
    outer loop
      vertex 108.473 -46.9239 0
      vertex 24.5131 -24.4268 12.5
      vertex 108.473 -46.9239 12.5
    endloop
  endfacet
  facet normal 0.25882 0.965926 0
    outer loop
      vertex 24.5131 -24.4268 12.5
      vertex 108.473 -46.9239 0
      vertex 24.5131 -24.4268 0
    endloop
  endfacet
  facet normal 0.25882 -0.965926 0
    outer loop
      vertex 24.5131 24.4268 0
      vertex 108.473 46.9239 12.5
      vertex 24.5131 24.4268 12.5
    endloop
  endfacet
  facet normal 0.25882 -0.965926 0
    outer loop
      vertex 108.473 46.9239 12.5
      vertex 24.5131 24.4268 0
      vertex 108.473 46.9239 0
    endloop
  endfacet
  facet normal 0.965925 0.258821 0
    outer loop
      vertex 31.0583 0 12.5
      vertex 24.5131 24.4268 0
      vertex 24.5131 24.4268 12.5
    endloop
  endfacet
  facet normal 0.965925 0.258821 0
    outer loop
      vertex 24.5131 24.4268 0
      vertex 31.0583 0 12.5
      vertex 31.0583 0 0
    endloop
  endfacet
  facet normal -0.258819 0.965926 0
    outer loop
      vertex 123.413 15.2099 0
      vertex 66.6489 0 12.5
      vertex 123.413 15.2099 12.5
    endloop
  endfacet
  facet normal -0.258819 0.965926 0
    outer loop
      vertex 66.6489 0 12.5
      vertex 123.413 15.2099 0
      vertex 66.6489 0 0
    endloop
  endfacet
  facet normal -0.258819 -0.965926 0
    outer loop
      vertex -21.5583 -22.3879 50
      vertex 40 -38.8824 15
      vertex 40 -38.8824 50
    endloop
  endfacet
  facet normal -0.258819 -0.965926 0
    outer loop
      vertex -21.5583 -22.3879 0
      vertex 40 -38.8824 15
      vertex -21.5583 -22.3879 50
    endloop
  endfacet
  facet normal -0.258819 -0.965926 4.16261e-07
    outer loop
      vertex 100.779 -55.1681 0
      vertex 40 -38.8824 15
      vertex -21.5583 -22.3879 0
    endloop
  endfacet
  facet normal -0.258819 -0.965926 0
    outer loop
      vertex 40 -38.8824 15
      vertex 100.779 -55.1681 0
      vertex 100.779 -55.1681 15
    endloop
  endfacet
  facet normal -0.258819 0.965926 0
    outer loop
      vertex 100.779 55.1681 15
      vertex 100.779 55.1681 0
      vertex 40 38.8824 15
    endloop
  endfacet
  facet normal -0.258819 0.965926 0
    outer loop
      vertex 40 38.8824 15
      vertex -21.5583 22.3879 50
      vertex 40 38.8824 50
    endloop
  endfacet
  facet normal -0.258819 0.965926 0
    outer loop
      vertex 40 38.8824 15
      vertex -21.5583 22.3879 0
      vertex -21.5583 22.3879 50
    endloop
  endfacet
  facet normal -0.258819 0.965926 4.16261e-07
    outer loop
      vertex -21.5583 22.3879 0
      vertex 40 38.8824 15
      vertex 100.779 55.1681 0
    endloop
  endfacet
  facet normal 0.999507 0.0314117 0
    outer loop
      vertex 125 0 15
      vertex 124.852 4.70929 0
      vertex 124.852 4.70929 15
    endloop
  endfacet
  facet normal 0.999507 0.0314117 0
    outer loop
      vertex 124.852 4.70929 0
      vertex 125 0 15
      vertex 125 0 0
    endloop
  endfacet
  facet normal -0.999507 0.0314117 0
    outer loop
      vertex -25 0 0
      vertex -24.852 4.70929 50
      vertex -24.852 4.70929 0
    endloop
  endfacet
  facet normal -0.999507 0.0314117 0
    outer loop
      vertex -24.852 4.70929 50
      vertex -25 0 0
      vertex -25 0 50
    endloop
  endfacet
  facet normal 0.707064 0.707149 0
    outer loop
      vertex 104.673 51.341 15
      vertex 101.341 54.6726 0
      vertex 101.341 54.6726 15
    endloop
  endfacet
  facet normal 0.707064 0.707149 0
    outer loop
      vertex 101.341 54.6726 0
      vertex 104.673 51.341 15
      vertex 104.673 51.341 0
    endloop
  endfacet
  facet normal 0.707064 -0.707149 0
    outer loop
      vertex 101.341 -54.6726 15
      vertex 104.673 -51.341 0
      vertex 104.673 -51.341 15
    endloop
  endfacet
  facet normal 0.707064 -0.707149 0
    outer loop
      vertex 104.673 -51.341 0
      vertex 101.341 -54.6726 15
      vertex 101.341 -54.6726 0
    endloop
  endfacet
  facet normal 0.91777 0.397111 0
    outer loop
      vertex 119.733 27.6093 15
      vertex 117.862 31.9334 12.5
      vertex 117.862 31.9334 15
    endloop
  endfacet
  facet normal 0.91777 0.397111 0
    outer loop
      vertex 117.862 31.9334 12.5
      vertex 119.733 27.6093 15
      vertex 119.733 27.6093 12.5
    endloop
  endfacet
  facet normal 0 0 -1
    outer loop
      vertex 66.6489 0 0
      vertex 125 0 0
      vertex 124.852 -4.70929 0
    endloop
  endfacet
  facet normal 0 0 -1
    outer loop
      vertex 66.6489 0 0
      vertex 124.852 -4.70929 0
      vertex 124.409 -9.39999 0
    endloop
  endfacet
  facet normal 0 0 -1
    outer loop
      vertex 125 0 0
      vertex 66.6489 0 0
      vertex 124.852 4.70929 0
    endloop
  endfacet
  facet normal 0 0 -1
    outer loop
      vertex 66.6489 0 0
      vertex 124.409 -9.39999 0
      vertex 123.672 -14.0536 0
    endloop
  endfacet
  facet normal -0 0 -1
    outer loop
      vertex 124.852 4.70929 0
      vertex 66.6489 0 0
      vertex 124.409 9.39999 0
    endloop
  endfacet
  facet normal 0 0 -1
    outer loop
      vertex 66.6489 0 0
      vertex 123.672 -14.0536 0
      vertex 123.413 -15.2099 0
    endloop
  endfacet
  facet normal -0 0 -1
    outer loop
      vertex 124.409 9.39999 0
      vertex 66.6489 0 0
      vertex 123.672 14.0536 0
    endloop
  endfacet
  facet normal -0 0 -1
    outer loop
      vertex 123.672 14.0536 0
      vertex 66.6489 0 0
      vertex 123.413 15.2099 0
    endloop
  endfacet
  facet normal 0 0 -1
    outer loop
      vertex 104.673 -51.341 0
      vertex 108.473 -46.9239 0
      vertex 107.788 -47.8068 0
    endloop
  endfacet
  facet normal 0 0 -1
    outer loop
      vertex 24.5131 -24.4268 0
      vertex 104.673 -51.341 0
      vertex 101.341 -54.6726 0
    endloop
  endfacet
  facet normal 0 0 -1
    outer loop
      vertex 24.5131 -24.4268 0
      vertex 101.341 -54.6726 0
      vertex 100.779 -55.1681 0
    endloop
  endfacet
  facet normal 0 0 -1
    outer loop
      vertex 104.673 -51.341 0
      vertex 24.5131 -24.4268 0
      vertex 108.473 -46.9239 0
    endloop
  endfacet
  facet normal 0 0 -1
    outer loop
      vertex 18.4705 17.25 0
      vertex 31.0583 0 0
      vertex 18.4705 -17.25 0
    endloop
  endfacet
  facet normal 0 0 -1
    outer loop
      vertex 24.5131 -24.4268 0
      vertex 5.52952 -17.25 0
      vertex 18.4705 -17.25 0
    endloop
  endfacet
  facet normal 0 0 -1
    outer loop
      vertex -21.5583 -22.3879 0
      vertex 24.5131 -24.4268 0
      vertex 100.779 -55.1681 0
    endloop
  endfacet
  facet normal 0 0 -1
    outer loop
      vertex 5.52952 -17.25 0
      vertex -5.52952 -17.25 0
      vertex 5.52952 17.25 0
    endloop
  endfacet
  facet normal 0 0 -1
    outer loop
      vertex 24.5131 -24.4268 0
      vertex -21.5583 -22.3879 0
      vertex 5.52952 -17.25 0
    endloop
  endfacet
  facet normal -0 0 -1
    outer loop
      vertex 5.52952 -17.25 0
      vertex -21.5583 -22.3879 0
      vertex -5.52952 -17.25 0
    endloop
  endfacet
  facet normal 0 0 -1
    outer loop
      vertex -22.6437 -18.6517 0
      vertex -18.4705 -17.25 0
      vertex -21.5583 -22.3879 0
    endloop
  endfacet
  facet normal -0 0 -1
    outer loop
      vertex -5.52952 -17.25 0
      vertex -21.5583 -22.3879 0
      vertex -18.4705 -17.25 0
    endloop
  endfacet
  facet normal 0 0 -1
    outer loop
      vertex 18.4705 -17.25 0
      vertex 31.0583 0 0
      vertex 24.5131 -24.4268 0
    endloop
  endfacet
  facet normal 0 0 -1
    outer loop
      vertex 108.473 46.9239 0
      vertex 104.673 51.341 0
      vertex 107.788 47.8068 0
    endloop
  endfacet
  facet normal 0 0 -1
    outer loop
      vertex 24.5131 24.4268 0
      vertex 104.673 51.341 0
      vertex 108.473 46.9239 0
    endloop
  endfacet
  facet normal -0 0 -1
    outer loop
      vertex 104.673 51.341 0
      vertex 24.5131 24.4268 0
      vertex 101.341 54.6726 0
    endloop
  endfacet
  facet normal -0 0 -1
    outer loop
      vertex 101.341 54.6726 0
      vertex 24.5131 24.4268 0
      vertex 100.779 55.1681 0
    endloop
  endfacet
  facet normal 0 0 -1
    outer loop
      vertex 31.0583 0 0
      vertex 18.4705 17.25 0
      vertex 24.5131 24.4268 0
    endloop
  endfacet
  facet normal 0 0 -1
    outer loop
      vertex 5.52952 17.25 0
      vertex 24.5131 24.4268 0
      vertex 18.4705 17.25 0
    endloop
  endfacet
  facet normal 0 0 -1
    outer loop
      vertex -21.5583 22.3879 0
      vertex 24.5131 24.4268 0
      vertex 5.52952 17.25 0
    endloop
  endfacet
  facet normal 0 0 -1
    outer loop
      vertex -5.52952 17.25 0
      vertex 5.52952 17.25 0
      vertex -5.52952 -17.25 0
    endloop
  endfacet
  facet normal 0 0 -1
    outer loop
      vertex -21.5583 22.3879 0
      vertex 5.52952 17.25 0
      vertex -5.52952 17.25 0
    endloop
  endfacet
  facet normal 0 0 -1
    outer loop
      vertex -21.5583 22.3879 0
      vertex -5.52952 17.25 0
      vertex -18.4705 17.25 0
    endloop
  endfacet
  facet normal -0 0 -1
    outer loop
      vertex 24.5131 24.4268 0
      vertex -21.5583 22.3879 0
      vertex 100.779 55.1681 0
    endloop
  endfacet
  facet normal 0 0 -1
    outer loop
      vertex -23.6715 -14.0536 0
      vertex -18.4705 -17.25 0
      vertex -22.6437 -18.6517 0
    endloop
  endfacet
  facet normal 0 0 -1
    outer loop
      vertex -24.4086 -9.39999 0
      vertex -18.4705 -17.25 0
      vertex -23.6715 -14.0536 0
    endloop
  endfacet
  facet normal 0 0 -1
    outer loop
      vertex -18.4705 17.25 0
      vertex -22.6437 18.6517 0
      vertex -21.5583 22.3879 0
    endloop
  endfacet
  facet normal 0 0 -1
    outer loop
      vertex -24.852 -4.70929 0
      vertex -18.4705 -17.25 0
      vertex -24.4086 -9.39999 0
    endloop
  endfacet
  facet normal -0 0 -1
    outer loop
      vertex -18.4705 17.25 0
      vertex -23.6715 14.0536 0
      vertex -22.6437 18.6517 0
    endloop
  endfacet
  facet normal 0 0 -1
    outer loop
      vertex -25 0 0
      vertex -18.4705 -17.25 0
      vertex -24.852 -4.70929 0
    endloop
  endfacet
  facet normal 0 0 -1
    outer loop
      vertex -18.4705 17.25 0
      vertex -24.4086 9.39999 0
      vertex -23.6715 14.0536 0
    endloop
  endfacet
  facet normal 0 0 -1
    outer loop
      vertex -18.4705 -17.25 0
      vertex -25 0 0
      vertex -18.4705 17.25 0
    endloop
  endfacet
  facet normal 0 0 -1
    outer loop
      vertex -18.4705 17.25 0
      vertex -24.852 4.70929 0
      vertex -24.4086 9.39999 0
    endloop
  endfacet
  facet normal 0 0 -1
    outer loop
      vertex -18.4705 17.25 0
      vertex -25 0 0
      vertex -24.852 4.70929 0
    endloop
  endfacet
  facet normal 0.975937 0.218053 0
    outer loop
      vertex 122.644 18.6517 15
      vertex 123.413 15.2099 12.5
      vertex 122.644 18.6517 12.5
    endloop
  endfacet
  facet normal 0.975908 0.218184 -0.000189447
    outer loop
      vertex 123.672 14.0536 15
      vertex 123.413 15.2099 12.5
      vertex 122.644 18.6517 15
    endloop
  endfacet
  facet normal 0.97582 0.218574 -0
    outer loop
      vertex 123.672 14.0536 0
      vertex 123.413 15.2099 12.5
      vertex 123.672 14.0536 15
    endloop
  endfacet
  facet normal 0.97582 0.218574 0
    outer loop
      vertex 123.413 15.2099 12.5
      vertex 123.672 14.0536 0
      vertex 123.413 15.2099 0
    endloop
  endfacet
  facet normal 0.827015 0.562181 0
    outer loop
      vertex 113.325 40.187 15
      vertex 110.676 44.0839 12.5
      vertex 110.676 44.0839 15
    endloop
  endfacet
  facet normal 0.827015 0.562181 0
    outer loop
      vertex 110.676 44.0839 12.5
      vertex 113.325 40.187 15
      vertex 113.325 40.187 12.5
    endloop
  endfacet
  facet normal 0.790089 0.612992 0
    outer loop
      vertex 107.788 47.8068 15
      vertex 108.473 46.9239 12.5
      vertex 107.788 47.8068 0
    endloop
  endfacet
  facet normal 0.790132 0.612937 3.15212e-05
    outer loop
      vertex 110.676 44.0839 15
      vertex 108.473 46.9239 12.5
      vertex 107.788 47.8068 15
    endloop
  endfacet
  facet normal 0.790146 0.612919 0
    outer loop
      vertex 108.473 46.9239 12.5
      vertex 110.676 44.0839 15
      vertex 110.676 44.0839 12.5
    endloop
  endfacet
  facet normal 0.790089 0.612992 0
    outer loop
      vertex 107.788 47.8068 0
      vertex 108.473 46.9239 12.5
      vertex 108.473 46.9239 0
    endloop
  endfacet
  facet normal 0.89101 0.453984 0
    outer loop
      vertex 117.862 31.9334 15
      vertex 115.723 36.1315 12.5
      vertex 115.723 36.1315 15
    endloop
  endfacet
  facet normal 0.89101 0.453984 0
    outer loop
      vertex 115.723 36.1315 12.5
      vertex 117.862 31.9334 15
      vertex 117.862 31.9334 12.5
    endloop
  endfacet
  facet normal 0.661335 0.750091 -0
    outer loop
      vertex 101.341 54.6726 0
      vertex 100.779 55.1681 15
      vertex 101.341 54.6726 15
    endloop
  endfacet
  facet normal 0.661335 0.750091 0
    outer loop
      vertex 100.779 55.1681 15
      vertex 101.341 54.6726 0
      vertex 100.779 55.1681 0
    endloop
  endfacet
  facet normal -0.975917 0.218144 0
    outer loop
      vertex -23.6715 14.0536 0
      vertex -22.6437 18.6517 50
      vertex -22.6437 18.6517 0
    endloop
  endfacet
  facet normal -0.975917 0.218144 0
    outer loop
      vertex -22.6437 18.6517 50
      vertex -23.6715 14.0536 0
      vertex -23.6715 14.0536 50
    endloop
  endfacet
  facet normal 0 0 1
    outer loop
      vertex 40 38.8824 50
      vertex 31.8679 17.25 50
      vertex 40 -38.8824 50
    endloop
  endfacet
  facet normal 0 0 1
    outer loop
      vertex 40 38.8824 50
      vertex 18.927 17.25 50
      vertex 31.8679 17.25 50
    endloop
  endfacet
  facet normal 0 0 1
    outer loop
      vertex 18.927 17.25 50
      vertex 7.86794 17.25 50
      vertex 18.927 -17.25 50
    endloop
  endfacet
  facet normal 0 0 1
    outer loop
      vertex 40 38.8824 50
      vertex 7.86794 17.25 50
      vertex 18.927 17.25 50
    endloop
  endfacet
  facet normal 0 0 1
    outer loop
      vertex 40 38.8824 50
      vertex -5.07302 17.25 50
      vertex 7.86794 17.25 50
    endloop
  endfacet
  facet normal -0 0 1
    outer loop
      vertex -22.6437 18.6517 50
      vertex -5.07302 17.25 50
      vertex -21.5583 22.3879 50
    endloop
  endfacet
  facet normal -0 0 1
    outer loop
      vertex -21.5583 22.3879 50
      vertex -5.07302 17.25 50
      vertex 40 38.8824 50
    endloop
  endfacet
  facet normal -0 0 1
    outer loop
      vertex 31.8679 -17.25 50
      vertex 40 -38.8824 50
      vertex 31.8679 17.25 50
    endloop
  endfacet
  facet normal -0 0 1
    outer loop
      vertex 18.927 -17.25 50
      vertex 40 -38.8824 50
      vertex 31.8679 -17.25 50
    endloop
  endfacet
  facet normal 0 0 1
    outer loop
      vertex 7.86794 -17.25 50
      vertex 18.927 -17.25 50
      vertex 7.86794 17.25 50
    endloop
  endfacet
  facet normal -0 0 1
    outer loop
      vertex 7.86794 -17.25 50
      vertex 40 -38.8824 50
      vertex 18.927 -17.25 50
    endloop
  endfacet
  facet normal -0 0 1
    outer loop
      vertex -5.07302 -17.25 50
      vertex 40 -38.8824 50
      vertex 7.86794 -17.25 50
    endloop
  endfacet
  facet normal 0 0 1
    outer loop
      vertex -5.07302 -17.25 50
      vertex -21.5583 -22.3879 50
      vertex 40 -38.8824 50
    endloop
  endfacet
  facet normal 0 0 1
    outer loop
      vertex -23.6715 14.0536 50
      vertex -5.07302 17.25 50
      vertex -22.6437 18.6517 50
    endloop
  endfacet
  facet normal 0 0 1
    outer loop
      vertex -24.4086 9.39999 50
      vertex -5.07302 17.25 50
      vertex -23.6715 14.0536 50
    endloop
  endfacet
  facet normal 0 0 1
    outer loop
      vertex -5.07302 -17.25 50
      vertex -22.6437 -18.6517 50
      vertex -21.5583 -22.3879 50
    endloop
  endfacet
  facet normal 0 0 1
    outer loop
      vertex -24.852 4.70929 50
      vertex -5.07302 17.25 50
      vertex -24.4086 9.39999 50
    endloop
  endfacet
  facet normal 0 0 1
    outer loop
      vertex -5.07302 -17.25 50
      vertex -23.6715 -14.0536 50
      vertex -22.6437 -18.6517 50
    endloop
  endfacet
  facet normal 0 0 1
    outer loop
      vertex -25 0 50
      vertex -5.07302 17.25 50
      vertex -24.852 4.70929 50
    endloop
  endfacet
  facet normal 0 0 1
    outer loop
      vertex -5.07302 -17.25 50
      vertex -24.4086 -9.39999 50
      vertex -23.6715 -14.0536 50
    endloop
  endfacet
  facet normal 0 0 1
    outer loop
      vertex -5.07302 17.25 50
      vertex -25 0 50
      vertex -5.07302 -17.25 50
    endloop
  endfacet
  facet normal 0 0 1
    outer loop
      vertex -5.07302 -17.25 50
      vertex -24.852 -4.70929 50
      vertex -24.4086 -9.39999 50
    endloop
  endfacet
  facet normal 0 0 1
    outer loop
      vertex -5.07302 -17.25 50
      vertex -25 0 50
      vertex -24.852 -4.70929 50
    endloop
  endfacet
  facet normal 0.827015 -0.562181 0
    outer loop
      vertex 110.676 -44.0839 15
      vertex 113.325 -40.187 12.5
      vertex 113.325 -40.187 15
    endloop
  endfacet
  facet normal 0.827015 -0.562181 0
    outer loop
      vertex 113.325 -40.187 12.5
      vertex 110.676 -44.0839 15
      vertex 110.676 -44.0839 12.5
    endloop
  endfacet
  facet normal 0.750197 -0.661214 0
    outer loop
      vertex 104.673 -51.341 15
      vertex 107.788 -47.8068 0
      vertex 107.788 -47.8068 15
    endloop
  endfacet
  facet normal 0.750197 -0.661214 0
    outer loop
      vertex 107.788 -47.8068 0
      vertex 104.673 -51.341 15
      vertex 104.673 -51.341 0
    endloop
  endfacet
  facet normal 0.860781 -0.508976 0
    outer loop
      vertex 113.325 -40.187 15
      vertex 115.723 -36.1315 12.5
      vertex 115.723 -36.1315 15
    endloop
  endfacet
  facet normal 0.860781 -0.508976 0
    outer loop
      vertex 115.723 -36.1315 12.5
      vertex 113.325 -40.187 15
      vertex 113.325 -40.187 12.5
    endloop
  endfacet
  facet normal -0.975917 -0.218144 0
    outer loop
      vertex -22.6437 -18.6517 0
      vertex -23.6715 -14.0536 50
      vertex -23.6715 -14.0536 0
    endloop
  endfacet
  facet normal -0.975917 -0.218144 0
    outer loop
      vertex -23.6715 -14.0536 50
      vertex -22.6437 -18.6517 0
      vertex -22.6437 -18.6517 50
    endloop
  endfacet
  facet normal -0.999507 -0.0314117 0
    outer loop
      vertex -24.852 -4.70929 0
      vertex -25 0 50
      vertex -25 0 0
    endloop
  endfacet
  facet normal -0.999507 -0.0314117 0
    outer loop
      vertex -25 0 50
      vertex -24.852 -4.70929 0
      vertex -24.852 -4.70929 50
    endloop
  endfacet
  facet normal 0.98769 0.156422 0
    outer loop
      vertex 124.409 9.39999 15
      vertex 123.672 14.0536 0
      vertex 123.672 14.0536 15
    endloop
  endfacet
  facet normal 0.98769 0.156422 0
    outer loop
      vertex 123.672 14.0536 0
      vertex 124.409 9.39999 15
      vertex 124.409 9.39999 0
    endloop
  endfacet
  facet normal 0.99557 0.0940238 0
    outer loop
      vertex 124.852 4.70929 15
      vertex 124.409 9.39999 0
      vertex 124.409 9.39999 15
    endloop
  endfacet
  facet normal 0.99557 0.0940238 0
    outer loop
      vertex 124.409 9.39999 0
      vertex 124.852 4.70929 15
      vertex 124.852 4.70929 0
    endloop
  endfacet
  facet normal 0.940879 0.338742 0
    outer loop
      vertex 121.329 23.1763 15
      vertex 119.733 27.6093 12.5
      vertex 119.733 27.6093 15
    endloop
  endfacet
  facet normal 0.940879 0.338742 0
    outer loop
      vertex 119.733 27.6093 12.5
      vertex 121.329 23.1763 15
      vertex 121.329 23.1763 12.5
    endloop
  endfacet
  facet normal 0.960266 0.279085 0
    outer loop
      vertex 122.644 18.6517 15
      vertex 121.329 23.1763 12.5
      vertex 121.329 23.1763 15
    endloop
  endfacet
  facet normal 0.960266 0.279085 0
    outer loop
      vertex 121.329 23.1763 12.5
      vertex 122.644 18.6517 15
      vertex 122.644 18.6517 12.5
    endloop
  endfacet
  facet normal 0.750197 0.661214 0
    outer loop
      vertex 107.788 47.8068 15
      vertex 104.673 51.341 0
      vertex 104.673 51.341 15
    endloop
  endfacet
  facet normal 0.750197 0.661214 0
    outer loop
      vertex 104.673 51.341 0
      vertex 107.788 47.8068 15
      vertex 107.788 47.8068 0
    endloop
  endfacet
  facet normal 0.860781 0.508976 0
    outer loop
      vertex 115.723 36.1315 15
      vertex 113.325 40.187 12.5
      vertex 113.325 40.187 15
    endloop
  endfacet
  facet normal 0.860781 0.508976 0
    outer loop
      vertex 113.325 40.187 12.5
      vertex 115.723 36.1315 15
      vertex 115.723 36.1315 12.5
    endloop
  endfacet
  facet normal -0.960298 0.278975 0
    outer loop
      vertex -22.6437 18.6517 0
      vertex -21.5583 22.3879 50
      vertex -21.5583 22.3879 0
    endloop
  endfacet
  facet normal -0.960298 0.278975 0
    outer loop
      vertex -21.5583 22.3879 50
      vertex -22.6437 18.6517 0
      vertex -22.6437 18.6517 50
    endloop
  endfacet
  facet normal -0.987687 0.156443 0
    outer loop
      vertex -24.4086 9.39999 0
      vertex -23.6715 14.0536 50
      vertex -23.6715 14.0536 0
    endloop
  endfacet
  facet normal -0.987687 0.156443 0
    outer loop
      vertex -23.6715 14.0536 50
      vertex -24.4086 9.39999 0
      vertex -24.4086 9.39999 50
    endloop
  endfacet
  facet normal -0.995562 0.094108 0
    outer loop
      vertex -24.852 4.70929 0
      vertex -24.4086 9.39999 50
      vertex -24.4086 9.39999 0
    endloop
  endfacet
  facet normal -0.995562 0.094108 0
    outer loop
      vertex -24.4086 9.39999 50
      vertex -24.852 4.70929 0
      vertex -24.852 4.70929 50
    endloop
  endfacet
  facet normal 0.999507 -0.0314117 0
    outer loop
      vertex 124.852 -4.70929 15
      vertex 125 0 0
      vertex 125 0 15
    endloop
  endfacet
  facet normal 0.999507 -0.0314117 0
    outer loop
      vertex 125 0 0
      vertex 124.852 -4.70929 15
      vertex 124.852 -4.70929 0
    endloop
  endfacet
  facet normal 0.661335 -0.750091 0
    outer loop
      vertex 100.779 -55.1681 0
      vertex 101.341 -54.6726 15
      vertex 100.779 -55.1681 15
    endloop
  endfacet
  facet normal 0.661335 -0.750091 0
    outer loop
      vertex 101.341 -54.6726 15
      vertex 100.779 -55.1681 0
      vertex 101.341 -54.6726 0
    endloop
  endfacet
  facet normal 0.790146 -0.612919 0
    outer loop
      vertex 110.676 -44.0839 15
      vertex 108.473 -46.9239 12.5
      vertex 110.676 -44.0839 12.5
    endloop
  endfacet
  facet normal 0.790132 -0.612937 3.15212e-05
    outer loop
      vertex 107.788 -47.8068 15
      vertex 108.473 -46.9239 12.5
      vertex 110.676 -44.0839 15
    endloop
  endfacet
  facet normal 0.790089 -0.612992 0
    outer loop
      vertex 107.788 -47.8068 0
      vertex 108.473 -46.9239 12.5
      vertex 107.788 -47.8068 15
    endloop
  endfacet
  facet normal 0.790089 -0.612992 0
    outer loop
      vertex 108.473 -46.9239 12.5
      vertex 107.788 -47.8068 0
      vertex 108.473 -46.9239 0
    endloop
  endfacet
  facet normal 0.89101 -0.453984 0
    outer loop
      vertex 115.723 -36.1315 15
      vertex 117.862 -31.9334 12.5
      vertex 117.862 -31.9334 15
    endloop
  endfacet
  facet normal 0.89101 -0.453984 0
    outer loop
      vertex 117.862 -31.9334 12.5
      vertex 115.723 -36.1315 15
      vertex 115.723 -36.1315 12.5
    endloop
  endfacet
  facet normal 0.940879 -0.338742 0
    outer loop
      vertex 119.733 -27.6093 15
      vertex 121.329 -23.1763 12.5
      vertex 121.329 -23.1763 15
    endloop
  endfacet
  facet normal 0.940879 -0.338742 0
    outer loop
      vertex 121.329 -23.1763 12.5
      vertex 119.733 -27.6093 15
      vertex 119.733 -27.6093 12.5
    endloop
  endfacet
  facet normal 0.97582 -0.218574 0
    outer loop
      vertex 123.672 -14.0536 15
      vertex 123.413 -15.2099 12.5
      vertex 123.672 -14.0536 0
    endloop
  endfacet
  facet normal 0.975908 -0.218184 -0.000189447
    outer loop
      vertex 122.644 -18.6517 15
      vertex 123.413 -15.2099 12.5
      vertex 123.672 -14.0536 15
    endloop
  endfacet
  facet normal 0.975937 -0.218053 0
    outer loop
      vertex 123.413 -15.2099 12.5
      vertex 122.644 -18.6517 15
      vertex 122.644 -18.6517 12.5
    endloop
  endfacet
  facet normal 0.97582 -0.218574 0
    outer loop
      vertex 123.672 -14.0536 0
      vertex 123.413 -15.2099 12.5
      vertex 123.413 -15.2099 0
    endloop
  endfacet
  facet normal -0.960298 -0.278975 0
    outer loop
      vertex -21.5583 -22.3879 0
      vertex -22.6437 -18.6517 50
      vertex -22.6437 -18.6517 0
    endloop
  endfacet
  facet normal -0.960298 -0.278975 0
    outer loop
      vertex -22.6437 -18.6517 50
      vertex -21.5583 -22.3879 0
      vertex -21.5583 -22.3879 50
    endloop
  endfacet
  facet normal -0.995562 -0.094108 0
    outer loop
      vertex -24.4086 -9.39999 0
      vertex -24.852 -4.70929 50
      vertex -24.852 -4.70929 0
    endloop
  endfacet
  facet normal -0.995562 -0.094108 0
    outer loop
      vertex -24.852 -4.70929 50
      vertex -24.4086 -9.39999 0
      vertex -24.4086 -9.39999 50
    endloop
  endfacet
  facet normal 0.91777 -0.397111 0
    outer loop
      vertex 117.862 -31.9334 15
      vertex 119.733 -27.6093 12.5
      vertex 119.733 -27.6093 15
    endloop
  endfacet
  facet normal 0.91777 -0.397111 0
    outer loop
      vertex 119.733 -27.6093 12.5
      vertex 117.862 -31.9334 15
      vertex 117.862 -31.9334 12.5
    endloop
  endfacet
  facet normal 0.960266 -0.279085 0
    outer loop
      vertex 121.329 -23.1763 15
      vertex 122.644 -18.6517 12.5
      vertex 122.644 -18.6517 15
    endloop
  endfacet
  facet normal 0.960266 -0.279085 0
    outer loop
      vertex 122.644 -18.6517 12.5
      vertex 121.329 -23.1763 15
      vertex 121.329 -23.1763 12.5
    endloop
  endfacet
  facet normal 0.99557 -0.0940238 0
    outer loop
      vertex 124.409 -9.39999 15
      vertex 124.852 -4.70929 0
      vertex 124.852 -4.70929 15
    endloop
  endfacet
  facet normal 0.99557 -0.0940238 0
    outer loop
      vertex 124.852 -4.70929 0
      vertex 124.409 -9.39999 15
      vertex 124.409 -9.39999 0
    endloop
  endfacet
  facet normal 0.98769 -0.156422 0
    outer loop
      vertex 123.672 -14.0536 15
      vertex 124.409 -9.39999 0
      vertex 124.409 -9.39999 15
    endloop
  endfacet
  facet normal 0.98769 -0.156422 0
    outer loop
      vertex 124.409 -9.39999 0
      vertex 123.672 -14.0536 15
      vertex 123.672 -14.0536 0
    endloop
  endfacet
  facet normal -0.987687 -0.156443 0
    outer loop
      vertex -23.6715 -14.0536 0
      vertex -24.4086 -9.39999 50
      vertex -24.4086 -9.39999 0
    endloop
  endfacet
  facet normal -0.987687 -0.156443 0
    outer loop
      vertex -24.4086 -9.39999 50
      vertex -23.6715 -14.0536 0
      vertex -23.6715 -14.0536 50
    endloop
  endfacet
  facet normal 1 -0 0
    outer loop
      vertex 40 -38.8824 50
      vertex 40 38.8824 15
      vertex 40 38.8824 50
    endloop
  endfacet
  facet normal 1 0 0
    outer loop
      vertex 40 38.8824 15
      vertex 40 -38.8824 50
      vertex 40 -38.8824 15
    endloop
  endfacet
  facet normal 0 0 1
    outer loop
      vertex 40 38.8824 15
      vertex 125 0 15
      vertex 124.852 4.70929 15
    endloop
  endfacet
  facet normal 0 0 1
    outer loop
      vertex 40 38.8824 15
      vertex 124.852 4.70929 15
      vertex 124.409 9.39999 15
    endloop
  endfacet
  facet normal 0 0 1
    outer loop
      vertex 40 -38.8824 15
      vertex 125 0 15
      vertex 40 38.8824 15
    endloop
  endfacet
  facet normal 0 0 1
    outer loop
      vertex 40 38.8824 15
      vertex 124.409 9.39999 15
      vertex 123.672 14.0536 15
    endloop
  endfacet
  facet normal 0 0 1
    outer loop
      vertex 125 0 15
      vertex 40 -38.8824 15
      vertex 124.852 -4.70929 15
    endloop
  endfacet
  facet normal 0 0 1
    outer loop
      vertex 40 38.8824 15
      vertex 123.672 14.0536 15
      vertex 122.644 18.6517 15
    endloop
  endfacet
  facet normal 0 0 1
    outer loop
      vertex 124.852 -4.70929 15
      vertex 40 -38.8824 15
      vertex 124.409 -9.39999 15
    endloop
  endfacet
  facet normal 0 0 1
    outer loop
      vertex 40 38.8824 15
      vertex 122.644 18.6517 15
      vertex 121.329 23.1763 15
    endloop
  endfacet
  facet normal 0 0 1
    outer loop
      vertex 124.409 -9.39999 15
      vertex 40 -38.8824 15
      vertex 123.672 -14.0536 15
    endloop
  endfacet
  facet normal 0 0 1
    outer loop
      vertex 40 38.8824 15
      vertex 121.329 23.1763 15
      vertex 119.733 27.6093 15
    endloop
  endfacet
  facet normal 0 0 1
    outer loop
      vertex 123.672 -14.0536 15
      vertex 40 -38.8824 15
      vertex 122.644 -18.6517 15
    endloop
  endfacet
  facet normal 0 0 1
    outer loop
      vertex 40 38.8824 15
      vertex 119.733 27.6093 15
      vertex 117.862 31.9334 15
    endloop
  endfacet
  facet normal 0 0 1
    outer loop
      vertex 122.644 -18.6517 15
      vertex 40 -38.8824 15
      vertex 121.329 -23.1763 15
    endloop
  endfacet
  facet normal 0 0 1
    outer loop
      vertex 40 38.8824 15
      vertex 117.862 31.9334 15
      vertex 115.723 36.1315 15
    endloop
  endfacet
  facet normal 0 0 1
    outer loop
      vertex 121.329 -23.1763 15
      vertex 40 -38.8824 15
      vertex 119.733 -27.6093 15
    endloop
  endfacet
  facet normal -0 0 1
    outer loop
      vertex 40 38.8824 15
      vertex 115.723 36.1315 15
      vertex 113.325 40.187 15
    endloop
  endfacet
  facet normal 0 0 1
    outer loop
      vertex 119.733 -27.6093 15
      vertex 40 -38.8824 15
      vertex 117.862 -31.9334 15
    endloop
  endfacet
  facet normal 0 0 1
    outer loop
      vertex 40 38.8824 15
      vertex 113.325 40.187 15
      vertex 110.676 44.0839 15
    endloop
  endfacet
  facet normal 0 0 1
    outer loop
      vertex 117.862 -31.9334 15
      vertex 40 -38.8824 15
      vertex 115.723 -36.1315 15
    endloop
  endfacet
  facet normal 0 0 1
    outer loop
      vertex 40 38.8824 15
      vertex 110.676 44.0839 15
      vertex 107.788 47.8068 15
    endloop
  endfacet
  facet normal 0 0 1
    outer loop
      vertex 115.723 -36.1315 15
      vertex 40 -38.8824 15
      vertex 113.325 -40.187 15
    endloop
  endfacet
  facet normal 0 0 1
    outer loop
      vertex 40 38.8824 15
      vertex 107.788 47.8068 15
      vertex 104.673 51.341 15
    endloop
  endfacet
  facet normal 0 0 1
    outer loop
      vertex 113.325 -40.187 15
      vertex 40 -38.8824 15
      vertex 110.676 -44.0839 15
    endloop
  endfacet
  facet normal 0 0 1
    outer loop
      vertex 40 38.8824 15
      vertex 104.673 51.341 15
      vertex 101.341 54.6726 15
    endloop
  endfacet
  facet normal 0 0 1
    outer loop
      vertex 110.676 -44.0839 15
      vertex 40 -38.8824 15
      vertex 107.788 -47.8068 15
    endloop
  endfacet
  facet normal 0 0 1
    outer loop
      vertex 40 38.8824 15
      vertex 101.341 54.6726 15
      vertex 100.779 55.1681 15
    endloop
  endfacet
  facet normal 0 0 1
    outer loop
      vertex 107.788 -47.8068 15
      vertex 40 -38.8824 15
      vertex 104.673 -51.341 15
    endloop
  endfacet
  facet normal 0 0 1
    outer loop
      vertex 104.673 -51.341 15
      vertex 40 -38.8824 15
      vertex 101.341 -54.6726 15
    endloop
  endfacet
  facet normal 0 0 1
    outer loop
      vertex 101.341 -54.6726 15
      vertex 40 -38.8824 15
      vertex 100.779 -55.1681 15
    endloop
  endfacet
endsolid OpenSCAD_Model
