solid OpenSCAD_Model
  facet normal 0.998629 -0 0.052354
    outer loop
      vertex 22.3767 -22.5 2.35189
      vertex 22.5 22.5 0
      vertex 22.3767 22.5 2.35189
    endloop
  endfacet
  facet normal 0.998629 0 0.052354
    outer loop
      vertex 22.5 22.5 0
      vertex 22.3767 -22.5 2.35189
      vertex 22.5 -22.5 0
    endloop
  endfacet
  facet normal 0.544636 0 0.838672
    outer loop
      vertex 11.25 22.5 19.4856
      vertex 13.2252 -22.5 18.2029
      vertex 13.2252 22.5 18.2029
    endloop
  endfacet
  facet normal 0.544636 0 0.838672
    outer loop
      vertex 13.2252 -22.5 18.2029
      vertex 11.25 22.5 19.4856
      vertex 11.25 -22.5 19.4856
    endloop
  endfacet
  facet normal -0.358369 0 0.93358
    outer loop
      vertex -9.15157 22.5 20.5548
      vertex -6.95288 -22.5 21.3988
      vertex -6.95288 22.5 21.3988
    endloop
  endfacet
  facet normal -0.358369 0 0.93358
    outer loop
      vertex -6.95288 -22.5 21.3988
      vertex -9.15157 22.5 20.5548
      vertex -9.15157 -22.5 20.5548
    endloop
  endfacet
  facet normal -0.891007 0 0.453989
    outer loop
      vertex -20.5548 -22.5 9.15157
      vertex -19.4856 22.5 11.25
      vertex -20.5548 22.5 9.15157
    endloop
  endfacet
  facet normal -0.891007 0 0.453989
    outer loop
      vertex -19.4856 22.5 11.25
      vertex -20.5548 -22.5 9.15157
      vertex -19.4856 -22.5 11.25
    endloop
  endfacet
  facet normal 0.453989 0 0.891007
    outer loop
      vertex 9.15157 22.5 20.5548
      vertex 11.25 -22.5 19.4856
      vertex 11.25 22.5 19.4856
    endloop
  endfacet
  facet normal 0.453989 0 0.891007
    outer loop
      vertex 11.25 -22.5 19.4856
      vertex 9.15157 22.5 20.5548
      vertex 9.15157 -22.5 20.5548
    endloop
  endfacet
  facet normal 0.98769 -0 0.156426
    outer loop
      vertex 22.0083 -22.5 4.67801
      vertex 22.3767 22.5 2.35189
      vertex 22.0083 22.5 4.67801
    endloop
  endfacet
  facet normal 0.98769 0 0.156426
    outer loop
      vertex 22.3767 22.5 2.35189
      vertex 22.0083 -22.5 4.67801
      vertex 22.3767 -22.5 2.35189
    endloop
  endfacet
  facet normal 0.93358 -0 0.358369
    outer loop
      vertex 20.5548 -22.5 9.15157
      vertex 21.3988 22.5 6.95288
      vertex 20.5548 22.5 9.15157
    endloop
  endfacet
  facet normal 0.93358 0 0.358369
    outer loop
      vertex 21.3988 22.5 6.95288
      vertex 20.5548 -22.5 9.15157
      vertex 21.3988 -22.5 6.95288
    endloop
  endfacet
  facet normal 0.965931 -0 0.258799
    outer loop
      vertex 21.3988 -22.5 6.95288
      vertex 22.0083 22.5 4.67801
      vertex 21.3988 22.5 6.95288
    endloop
  endfacet
  facet normal 0.965931 0 0.258799
    outer loop
      vertex 22.0083 22.5 4.67801
      vertex 21.3988 -22.5 6.95288
      vertex 22.0083 -22.5 4.67801
    endloop
  endfacet
  facet normal 0.838672 -0 0.544636
    outer loop
      vertex 18.2029 -22.5 13.2252
      vertex 19.4856 22.5 11.25
      vertex 18.2029 22.5 13.2252
    endloop
  endfacet
  facet normal 0.838672 0 0.544636
    outer loop
      vertex 19.4856 22.5 11.25
      vertex 18.2029 -22.5 13.2252
      vertex 19.4856 -22.5 11.25
    endloop
  endfacet
  facet normal 0.707107 -0 0.707107
    outer loop
      vertex 15.0554 -22.5 16.7208
      vertex 16.7208 22.5 15.0554
      vertex 15.0554 22.5 16.7208
    endloop
  endfacet
  facet normal 0.707107 0 0.707107
    outer loop
      vertex 16.7208 22.5 15.0554
      vertex 15.0554 -22.5 16.7208
      vertex 16.7208 -22.5 15.0554
    endloop
  endfacet
  facet normal 0.777139 -0 0.629329
    outer loop
      vertex 16.7208 -22.5 15.0554
      vertex 18.2029 22.5 13.2252
      vertex 16.7208 22.5 15.0554
    endloop
  endfacet
  facet normal 0.777139 0 0.629329
    outer loop
      vertex 18.2029 22.5 13.2252
      vertex 16.7208 -22.5 15.0554
      vertex 18.2029 -22.5 13.2252
    endloop
  endfacet
  facet normal 0.052354 0 0.998629
    outer loop
      vertex 0 22.5 22.5
      vertex 2.35189 -22.5 22.3767
      vertex 2.35189 22.5 22.3767
    endloop
  endfacet
  facet normal 0.052354 0 0.998629
    outer loop
      vertex 2.35189 -22.5 22.3767
      vertex 0 22.5 22.5
      vertex 0 -22.5 22.5
    endloop
  endfacet
  facet normal 0.258799 0 0.965931
    outer loop
      vertex 4.67801 22.5 22.0083
      vertex 6.95288 -22.5 21.3988
      vertex 6.95288 22.5 21.3988
    endloop
  endfacet
  facet normal 0.258799 0 0.965931
    outer loop
      vertex 6.95288 -22.5 21.3988
      vertex 4.67801 22.5 22.0083
      vertex 4.67801 -22.5 22.0083
    endloop
  endfacet
  facet normal -0.998629 0 0.052354
    outer loop
      vertex -22.5 -22.5 0
      vertex -22.3767 22.5 2.35189
      vertex -22.5 22.5 0
    endloop
  endfacet
  facet normal -0.998629 0 0.052354
    outer loop
      vertex -22.3767 22.5 2.35189
      vertex -22.5 -22.5 0
      vertex -22.3767 -22.5 2.35189
    endloop
  endfacet
  facet normal -0.965931 0 0.258799
    outer loop
      vertex -22.0083 -22.5 4.67801
      vertex -21.3988 22.5 6.95288
      vertex -22.0083 22.5 4.67801
    endloop
  endfacet
  facet normal -0.965931 0 0.258799
    outer loop
      vertex -21.3988 22.5 6.95288
      vertex -22.0083 -22.5 4.67801
      vertex -21.3988 -22.5 6.95288
    endloop
  endfacet
  facet normal -0.453989 0 0.891007
    outer loop
      vertex -11.25 22.5 19.4856
      vertex -9.15157 -22.5 20.5548
      vertex -9.15157 22.5 20.5548
    endloop
  endfacet
  facet normal -0.453989 0 0.891007
    outer loop
      vertex -9.15157 -22.5 20.5548
      vertex -11.25 22.5 19.4856
      vertex -11.25 -22.5 19.4856
    endloop
  endfacet
  facet normal -0.629329 0 0.777139
    outer loop
      vertex -15.0554 22.5 16.7208
      vertex -13.2252 -22.5 18.2029
      vertex -13.2252 22.5 18.2029
    endloop
  endfacet
  facet normal -0.629329 0 0.777139
    outer loop
      vertex -13.2252 -22.5 18.2029
      vertex -15.0554 22.5 16.7208
      vertex -15.0554 -22.5 16.7208
    endloop
  endfacet
  facet normal -0.544636 0 0.838672
    outer loop
      vertex -13.2252 22.5 18.2029
      vertex -11.25 -22.5 19.4856
      vertex -11.25 22.5 19.4856
    endloop
  endfacet
  facet normal -0.544636 0 0.838672
    outer loop
      vertex -11.25 -22.5 19.4856
      vertex -13.2252 22.5 18.2029
      vertex -13.2252 -22.5 18.2029
    endloop
  endfacet
  facet normal 0 1 -0
    outer loop
      vertex 0.32965 22.5 5.23964
      vertex 0 22.5 22.5
      vertex 2.35189 22.5 22.3767
    endloop
  endfacet
  facet normal 0 1 0
    outer loop
      vertex 0.983751 22.5 5.15701
      vertex 2.35189 22.5 22.3767
      vertex 4.67801 22.5 22.0083
    endloop
  endfacet
  facet normal 0 1 0
    outer loop
      vertex -0.32965 22.5 5.23964
      vertex 0 22.5 22.5
      vertex 0.32965 22.5 5.23964
    endloop
  endfacet
  facet normal 0 1 0
    outer loop
      vertex 1.62234 22.5 4.99305
      vertex 4.67801 22.5 22.0083
      vertex 6.95288 22.5 21.3988
    endloop
  endfacet
  facet normal 0 1 0
    outer loop
      vertex 0 22.5 22.5
      vertex -0.32965 22.5 5.23964
      vertex -2.35189 22.5 22.3767
    endloop
  endfacet
  facet normal 0 1 0
    outer loop
      vertex 1.62234 22.5 4.99305
      vertex 6.95288 22.5 21.3988
      vertex 9.15157 22.5 20.5548
    endloop
  endfacet
  facet normal 0 1 -0
    outer loop
      vertex -0.983751 22.5 5.15701
      vertex -2.35189 22.5 22.3767
      vertex -0.32965 22.5 5.23964
    endloop
  endfacet
  facet normal 0 1 0
    outer loop
      vertex 2.23534 22.5 4.75034
      vertex 9.15157 22.5 20.5548
      vertex 11.25 22.5 19.4856
    endloop
  endfacet
  facet normal 0 1 0
    outer loop
      vertex -2.35189 22.5 22.3767
      vertex -0.983751 22.5 5.15701
      vertex -4.67801 22.5 22.0083
    endloop
  endfacet
  facet normal 0 1 0
    outer loop
      vertex 2.81309 22.5 4.43272
      vertex 11.25 22.5 19.4856
      vertex 13.2252 22.5 18.2029
    endloop
  endfacet
  facet normal 0 1 -0
    outer loop
      vertex -1.62234 22.5 4.99305
      vertex -4.67801 22.5 22.0083
      vertex -0.983751 22.5 5.15701
    endloop
  endfacet
  facet normal 0 1 0
    outer loop
      vertex 3.34648 22.5 4.04519
      vertex 13.2252 22.5 18.2029
      vertex 15.0554 22.5 16.7208
    endloop
  endfacet
  facet normal 0 1 0
    outer loop
      vertex -4.67801 22.5 22.0083
      vertex -1.62234 22.5 4.99305
      vertex -6.95288 22.5 21.3988
    endloop
  endfacet
  facet normal 0 1 0
    outer loop
      vertex 3.82708 22.5 3.59387
      vertex 15.0554 22.5 16.7208
      vertex 16.7208 22.5 15.0554
    endloop
  endfacet
  facet normal 0 1 0
    outer loop
      vertex -6.95288 22.5 21.3988
      vertex -1.62234 22.5 4.99305
      vertex -9.15157 22.5 20.5548
    endloop
  endfacet
  facet normal 0 1 0
    outer loop
      vertex 4.24734 22.5 3.08587
      vertex 16.7208 22.5 15.0554
      vertex 18.2029 22.5 13.2252
    endloop
  endfacet
  facet normal 0 1 -0
    outer loop
      vertex -2.23534 22.5 4.75034
      vertex -9.15157 22.5 20.5548
      vertex -1.62234 22.5 4.99305
    endloop
  endfacet
  facet normal 0 1 0
    outer loop
      vertex 4.24734 22.5 3.08587
      vertex 18.2029 22.5 13.2252
      vertex 19.4856 22.5 11.25
    endloop
  endfacet
  facet normal 0 1 0
    outer loop
      vertex -9.15157 22.5 20.5548
      vertex -2.23534 22.5 4.75034
      vertex -11.25 22.5 19.4856
    endloop
  endfacet
  facet normal 0 1 0
    outer loop
      vertex 4.60061 22.5 2.52921
      vertex 19.4856 22.5 11.25
      vertex 20.5548 22.5 9.15157
    endloop
  endfacet
  facet normal 0 1 -0
    outer loop
      vertex -2.81309 22.5 4.43272
      vertex -11.25 22.5 19.4856
      vertex -2.23534 22.5 4.75034
    endloop
  endfacet
  facet normal 0 1 0
    outer loop
      vertex 4.88133 22.5 1.93265
      vertex 20.5548 22.5 9.15157
      vertex 21.3988 22.5 6.95288
    endloop
  endfacet
  facet normal 0 1 0
    outer loop
      vertex -11.25 22.5 19.4856
      vertex -2.81309 22.5 4.43272
      vertex -13.2252 22.5 18.2029
    endloop
  endfacet
  facet normal 0 1 -0
    outer loop
      vertex -3.34648 22.5 4.04519
      vertex -13.2252 22.5 18.2029
      vertex -2.81309 22.5 4.43272
    endloop
  endfacet
  facet normal 0 1 0
    outer loop
      vertex 2.35189 22.5 22.3767
      vertex 0.983751 22.5 5.15701
      vertex 0.32965 22.5 5.23964
    endloop
  endfacet
  facet normal 0 1 0
    outer loop
      vertex 4.67801 22.5 22.0083
      vertex 1.62234 22.5 4.99305
      vertex 0.983751 22.5 5.15701
    endloop
  endfacet
  facet normal 0 1 0
    outer loop
      vertex 9.15157 22.5 20.5548
      vertex 2.23534 22.5 4.75034
      vertex 1.62234 22.5 4.99305
    endloop
  endfacet
  facet normal 0 1 0
    outer loop
      vertex 5.08506 22.5 1.30562
      vertex 21.3988 22.5 6.95288
      vertex 22.0083 22.5 4.67801
    endloop
  endfacet
  facet normal 0 1 0
    outer loop
      vertex 11.25 22.5 19.4856
      vertex 2.81309 22.5 4.43272
      vertex 2.23534 22.5 4.75034
    endloop
  endfacet
  facet normal 0 1 0
    outer loop
      vertex 13.2252 22.5 18.2029
      vertex 3.34648 22.5 4.04519
      vertex 2.81309 22.5 4.43272
    endloop
  endfacet
  facet normal 0 1 0
    outer loop
      vertex 15.0554 22.5 16.7208
      vertex 3.82708 22.5 3.59387
      vertex 3.34648 22.5 4.04519
    endloop
  endfacet
  facet normal 0 1 0
    outer loop
      vertex 16.7208 22.5 15.0554
      vertex 4.24734 22.5 3.08587
      vertex 3.82708 22.5 3.59387
    endloop
  endfacet
  facet normal 0 1 0
    outer loop
      vertex 19.4856 22.5 11.25
      vertex 4.60061 22.5 2.52921
      vertex 4.24734 22.5 3.08587
    endloop
  endfacet
  facet normal 0 1 0
    outer loop
      vertex 5.2086 22.5 0.657999
      vertex 22.0083 22.5 4.67801
      vertex 22.3767 22.5 2.35189
    endloop
  endfacet
  facet normal 0 1 0
    outer loop
      vertex 20.5548 22.5 9.15157
      vertex 4.88133 22.5 1.93265
      vertex 4.60061 22.5 2.52921
    endloop
  endfacet
  facet normal 0 1 0
    outer loop
      vertex 21.3988 22.5 6.95288
      vertex 5.08506 22.5 1.30562
      vertex 4.88133 22.5 1.93265
    endloop
  endfacet
  facet normal 0 1 0
    outer loop
      vertex 22.0083 22.5 4.67801
      vertex 5.2086 22.5 0.657999
      vertex 5.08506 22.5 1.30562
    endloop
  endfacet
  facet normal 0 1 0
    outer loop
      vertex 5.25 22.5 0
      vertex 22.3767 22.5 2.35189
      vertex 22.5 22.5 0
    endloop
  endfacet
  facet normal 0 1 0
    outer loop
      vertex 22.3767 22.5 2.35189
      vertex 5.25 22.5 0
      vertex 5.2086 22.5 0.657999
    endloop
  endfacet
  facet normal 0 1 0
    outer loop
      vertex 22.5 22.5 0
      vertex 5.2086 22.5 -0.657999
      vertex 5.25 22.5 0
    endloop
  endfacet
  facet normal 0 1 0
    outer loop
      vertex 22.5 22.5 0
      vertex 5.08506 22.5 -1.30562
      vertex 5.2086 22.5 -0.657999
    endloop
  endfacet
  facet normal 0 1 0
    outer loop
      vertex 22.5 22.5 0
      vertex 4.88133 22.5 -1.93265
      vertex 5.08506 22.5 -1.30562
    endloop
  endfacet
  facet normal 0 1 0
    outer loop
      vertex 22.5 22.5 0
      vertex 4.60061 22.5 -2.52921
      vertex 4.88133 22.5 -1.93265
    endloop
  endfacet
  facet normal 0 1 0
    outer loop
      vertex 22.5 22.5 0
      vertex 4.24734 22.5 -3.08587
      vertex 4.60061 22.5 -2.52921
    endloop
  endfacet
  facet normal 0 1 -0
    outer loop
      vertex 22.5 22.5 -22.5
      vertex 4.24734 22.5 -3.08587
      vertex 22.5 22.5 0
    endloop
  endfacet
  facet normal 0 1 0
    outer loop
      vertex 4.24734 22.5 -3.08587
      vertex 22.5 22.5 -22.5
      vertex 3.82708 22.5 -3.59387
    endloop
  endfacet
  facet normal 0 1 0
    outer loop
      vertex 3.82708 22.5 -3.59387
      vertex 22.5 22.5 -22.5
      vertex 3.34648 22.5 -4.04519
    endloop
  endfacet
  facet normal 0 1 0
    outer loop
      vertex 3.34648 22.5 -4.04519
      vertex 22.5 22.5 -22.5
      vertex 2.81309 22.5 -4.43272
    endloop
  endfacet
  facet normal 0 1 0
    outer loop
      vertex 2.81309 22.5 -4.43272
      vertex 22.5 22.5 -22.5
      vertex 2.23534 22.5 -4.75034
    endloop
  endfacet
  facet normal 0 1 0
    outer loop
      vertex 2.23534 22.5 -4.75034
      vertex 22.5 22.5 -22.5
      vertex 1.62234 22.5 -4.99305
    endloop
  endfacet
  facet normal 0 1 0
    outer loop
      vertex 0.32965 22.5 -5.23964
      vertex 22.5 22.5 -22.5
      vertex -0.32965 22.5 -5.23964
    endloop
  endfacet
  facet normal 0 1 0
    outer loop
      vertex 0.983751 22.5 -5.15701
      vertex 22.5 22.5 -22.5
      vertex 0.32965 22.5 -5.23964
    endloop
  endfacet
  facet normal 0 1 0
    outer loop
      vertex 1.62234 22.5 -4.99305
      vertex 22.5 22.5 -22.5
      vertex 0.983751 22.5 -5.15701
    endloop
  endfacet
  facet normal 0 1 0
    outer loop
      vertex -13.2252 22.5 18.2029
      vertex -3.34648 22.5 4.04519
      vertex -15.0554 22.5 16.7208
    endloop
  endfacet
  facet normal 0 1 -0
    outer loop
      vertex -3.82708 22.5 3.59387
      vertex -15.0554 22.5 16.7208
      vertex -3.34648 22.5 4.04519
    endloop
  endfacet
  facet normal 0 1 0
    outer loop
      vertex -15.0554 22.5 16.7208
      vertex -3.82708 22.5 3.59387
      vertex -16.7208 22.5 15.0554
    endloop
  endfacet
  facet normal 0 1 -0
    outer loop
      vertex -4.24734 22.5 3.08587
      vertex -16.7208 22.5 15.0554
      vertex -3.82708 22.5 3.59387
    endloop
  endfacet
  facet normal 0 1 0
    outer loop
      vertex -16.7208 22.5 15.0554
      vertex -4.24734 22.5 3.08587
      vertex -18.2029 22.5 13.2252
    endloop
  endfacet
  facet normal 0 1 0
    outer loop
      vertex -18.2029 22.5 13.2252
      vertex -4.24734 22.5 3.08587
      vertex -19.4856 22.5 11.25
    endloop
  endfacet
  facet normal 0 1 -0
    outer loop
      vertex -4.60061 22.5 2.52921
      vertex -19.4856 22.5 11.25
      vertex -4.24734 22.5 3.08587
    endloop
  endfacet
  facet normal 0 1 0
    outer loop
      vertex -19.4856 22.5 11.25
      vertex -4.60061 22.5 2.52921
      vertex -20.5548 22.5 9.15157
    endloop
  endfacet
  facet normal 0 1 -0
    outer loop
      vertex -4.88133 22.5 1.93265
      vertex -20.5548 22.5 9.15157
      vertex -4.60061 22.5 2.52921
    endloop
  endfacet
  facet normal 0 1 0
    outer loop
      vertex -20.5548 22.5 9.15157
      vertex -4.88133 22.5 1.93265
      vertex -21.3988 22.5 6.95288
    endloop
  endfacet
  facet normal 0 1 -0
    outer loop
      vertex -5.08506 22.5 1.30562
      vertex -21.3988 22.5 6.95288
      vertex -4.88133 22.5 1.93265
    endloop
  endfacet
  facet normal 0 1 0
    outer loop
      vertex -21.3988 22.5 6.95288
      vertex -5.08506 22.5 1.30562
      vertex -22.0083 22.5 4.67801
    endloop
  endfacet
  facet normal 0 1 -0
    outer loop
      vertex -5.2086 22.5 0.657999
      vertex -22.0083 22.5 4.67801
      vertex -5.08506 22.5 1.30562
    endloop
  endfacet
  facet normal 0 1 0
    outer loop
      vertex -22.0083 22.5 4.67801
      vertex -5.2086 22.5 0.657999
      vertex -22.3767 22.5 2.35189
    endloop
  endfacet
  facet normal 0 1 -0
    outer loop
      vertex -5.25 22.5 0
      vertex -22.3767 22.5 2.35189
      vertex -5.2086 22.5 0.657999
    endloop
  endfacet
  facet normal 0 1 0
    outer loop
      vertex -5.25 22.5 0
      vertex -22.5 22.5 0
      vertex -22.3767 22.5 2.35189
    endloop
  endfacet
  facet normal 0 1 0
    outer loop
      vertex -5.2086 22.5 -0.657999
      vertex -22.5 22.5 0
      vertex -5.25 22.5 0
    endloop
  endfacet
  facet normal 0 1 0
    outer loop
      vertex -5.08506 22.5 -1.30562
      vertex -22.5 22.5 0
      vertex -5.2086 22.5 -0.657999
    endloop
  endfacet
  facet normal 0 1 0
    outer loop
      vertex -4.88133 22.5 -1.93265
      vertex -22.5 22.5 0
      vertex -5.08506 22.5 -1.30562
    endloop
  endfacet
  facet normal 0 1 0
    outer loop
      vertex -4.60061 22.5 -2.52921
      vertex -22.5 22.5 0
      vertex -4.88133 22.5 -1.93265
    endloop
  endfacet
  facet normal 0 1 0
    outer loop
      vertex -4.24734 22.5 -3.08587
      vertex -22.5 22.5 0
      vertex -4.60061 22.5 -2.52921
    endloop
  endfacet
  facet normal 0 1 0
    outer loop
      vertex -22.5 22.5 -22.5
      vertex -4.24734 22.5 -3.08587
      vertex -3.82708 22.5 -3.59387
    endloop
  endfacet
  facet normal 0 1 0
    outer loop
      vertex -22.5 22.5 -22.5
      vertex -3.82708 22.5 -3.59387
      vertex -3.34648 22.5 -4.04519
    endloop
  endfacet
  facet normal 0 1 0
    outer loop
      vertex -22.5 22.5 -22.5
      vertex -3.34648 22.5 -4.04519
      vertex -2.81309 22.5 -4.43272
    endloop
  endfacet
  facet normal 0 1 0
    outer loop
      vertex -22.5 22.5 -22.5
      vertex -2.81309 22.5 -4.43272
      vertex -2.23534 22.5 -4.75034
    endloop
  endfacet
  facet normal 0 1 0
    outer loop
      vertex -22.5 22.5 -22.5
      vertex -2.23534 22.5 -4.75034
      vertex -1.62234 22.5 -4.99305
    endloop
  endfacet
  facet normal 0 1 0
    outer loop
      vertex -22.5 22.5 -22.5
      vertex -1.62234 22.5 -4.99305
      vertex -0.983751 22.5 -5.15701
    endloop
  endfacet
  facet normal 0 1 0
    outer loop
      vertex -22.5 22.5 -22.5
      vertex -0.32965 22.5 -5.23964
      vertex 22.5 22.5 -22.5
    endloop
  endfacet
  facet normal 0 1 0
    outer loop
      vertex -0.32965 22.5 -5.23964
      vertex -22.5 22.5 -22.5
      vertex -0.983751 22.5 -5.15701
    endloop
  endfacet
  facet normal 0 1 0
    outer loop
      vertex -4.24734 22.5 -3.08587
      vertex -22.5 22.5 -22.5
      vertex -22.5 22.5 0
    endloop
  endfacet
  facet normal 0.891007 -0 0.453989
    outer loop
      vertex 19.4856 -22.5 11.25
      vertex 20.5548 22.5 9.15157
      vertex 19.4856 22.5 11.25
    endloop
  endfacet
  facet normal 0.891007 0 0.453989
    outer loop
      vertex 20.5548 22.5 9.15157
      vertex 19.4856 -22.5 11.25
      vertex 20.5548 -22.5 9.15157
    endloop
  endfacet
  facet normal 0.629329 0 0.777139
    outer loop
      vertex 13.2252 22.5 18.2029
      vertex 15.0554 -22.5 16.7208
      vertex 15.0554 22.5 16.7208
    endloop
  endfacet
  facet normal 0.629329 0 0.777139
    outer loop
      vertex 15.0554 -22.5 16.7208
      vertex 13.2252 22.5 18.2029
      vertex 13.2252 -22.5 18.2029
    endloop
  endfacet
  facet normal 0.156426 0 0.98769
    outer loop
      vertex 2.35189 22.5 22.3767
      vertex 4.67801 -22.5 22.0083
      vertex 4.67801 22.5 22.0083
    endloop
  endfacet
  facet normal 0.156426 0 0.98769
    outer loop
      vertex 4.67801 -22.5 22.0083
      vertex 2.35189 22.5 22.3767
      vertex 2.35189 -22.5 22.3767
    endloop
  endfacet
  facet normal 0.358369 0 0.93358
    outer loop
      vertex 6.95288 22.5 21.3988
      vertex 9.15157 -22.5 20.5548
      vertex 9.15157 22.5 20.5548
    endloop
  endfacet
  facet normal 0.358369 0 0.93358
    outer loop
      vertex 9.15157 -22.5 20.5548
      vertex 6.95288 22.5 21.3988
      vertex 6.95288 -22.5 21.3988
    endloop
  endfacet
  facet normal 0 -1 0
    outer loop
      vertex -0.32965 -22.5 5.23964
      vertex 0 -22.5 22.5
      vertex -2.35189 -22.5 22.3767
    endloop
  endfacet
  facet normal 0 -1 0
    outer loop
      vertex -0.983751 -22.5 5.15701
      vertex -2.35189 -22.5 22.3767
      vertex -4.67801 -22.5 22.0083
    endloop
  endfacet
  facet normal 0 -1 0
    outer loop
      vertex 0.32965 -22.5 5.23964
      vertex 0 -22.5 22.5
      vertex -0.32965 -22.5 5.23964
    endloop
  endfacet
  facet normal 0 -1 0
    outer loop
      vertex -1.62234 -22.5 4.99305
      vertex -4.67801 -22.5 22.0083
      vertex -6.95288 -22.5 21.3988
    endloop
  endfacet
  facet normal 0 -1 0
    outer loop
      vertex 0 -22.5 22.5
      vertex 0.32965 -22.5 5.23964
      vertex 2.35189 -22.5 22.3767
    endloop
  endfacet
  facet normal 0 -1 0
    outer loop
      vertex -1.62234 -22.5 4.99305
      vertex -6.95288 -22.5 21.3988
      vertex -9.15157 -22.5 20.5548
    endloop
  endfacet
  facet normal 0 -1 0
    outer loop
      vertex 0.983751 -22.5 5.15701
      vertex 2.35189 -22.5 22.3767
      vertex 0.32965 -22.5 5.23964
    endloop
  endfacet
  facet normal 0 -1 0
    outer loop
      vertex -2.23534 -22.5 4.75034
      vertex -9.15157 -22.5 20.5548
      vertex -11.25 -22.5 19.4856
    endloop
  endfacet
  facet normal 0 -1 -0
    outer loop
      vertex 2.35189 -22.5 22.3767
      vertex 0.983751 -22.5 5.15701
      vertex 4.67801 -22.5 22.0083
    endloop
  endfacet
  facet normal 0 -1 0
    outer loop
      vertex -2.81309 -22.5 4.43272
      vertex -11.25 -22.5 19.4856
      vertex -13.2252 -22.5 18.2029
    endloop
  endfacet
  facet normal 0 -1 0
    outer loop
      vertex 1.62234 -22.5 4.99305
      vertex 4.67801 -22.5 22.0083
      vertex 0.983751 -22.5 5.15701
    endloop
  endfacet
  facet normal 0 -1 0
    outer loop
      vertex -3.34648 -22.5 4.04519
      vertex -13.2252 -22.5 18.2029
      vertex -15.0554 -22.5 16.7208
    endloop
  endfacet
  facet normal 0 -1 -0
    outer loop
      vertex 4.67801 -22.5 22.0083
      vertex 1.62234 -22.5 4.99305
      vertex 6.95288 -22.5 21.3988
    endloop
  endfacet
  facet normal 0 -1 0
    outer loop
      vertex -3.82708 -22.5 3.59387
      vertex -15.0554 -22.5 16.7208
      vertex -16.7208 -22.5 15.0554
    endloop
  endfacet
  facet normal 0 -1 -0
    outer loop
      vertex 6.95288 -22.5 21.3988
      vertex 1.62234 -22.5 4.99305
      vertex 9.15157 -22.5 20.5548
    endloop
  endfacet
  facet normal 0 -1 0
    outer loop
      vertex -4.24734 -22.5 3.08587
      vertex -16.7208 -22.5 15.0554
      vertex -18.2029 -22.5 13.2252
    endloop
  endfacet
  facet normal 0 -1 0
    outer loop
      vertex 2.23534 -22.5 4.75034
      vertex 9.15157 -22.5 20.5548
      vertex 1.62234 -22.5 4.99305
    endloop
  endfacet
  facet normal 0 -1 0
    outer loop
      vertex -4.24734 -22.5 3.08587
      vertex -18.2029 -22.5 13.2252
      vertex -19.4856 -22.5 11.25
    endloop
  endfacet
  facet normal 0 -1 -0
    outer loop
      vertex 9.15157 -22.5 20.5548
      vertex 2.23534 -22.5 4.75034
      vertex 11.25 -22.5 19.4856
    endloop
  endfacet
  facet normal 0 -1 0
    outer loop
      vertex -4.60061 -22.5 2.52921
      vertex -19.4856 -22.5 11.25
      vertex -20.5548 -22.5 9.15157
    endloop
  endfacet
  facet normal 0 -1 0
    outer loop
      vertex 2.81309 -22.5 4.43272
      vertex 11.25 -22.5 19.4856
      vertex 2.23534 -22.5 4.75034
    endloop
  endfacet
  facet normal 0 -1 0
    outer loop
      vertex -4.88133 -22.5 1.93265
      vertex -20.5548 -22.5 9.15157
      vertex -21.3988 -22.5 6.95288
    endloop
  endfacet
  facet normal 0 -1 -0
    outer loop
      vertex 11.25 -22.5 19.4856
      vertex 2.81309 -22.5 4.43272
      vertex 13.2252 -22.5 18.2029
    endloop
  endfacet
  facet normal 0 -1 0
    outer loop
      vertex 3.34648 -22.5 4.04519
      vertex 13.2252 -22.5 18.2029
      vertex 2.81309 -22.5 4.43272
    endloop
  endfacet
  facet normal 0 -1 0
    outer loop
      vertex -2.35189 -22.5 22.3767
      vertex -0.983751 -22.5 5.15701
      vertex -0.32965 -22.5 5.23964
    endloop
  endfacet
  facet normal 0 -1 0
    outer loop
      vertex -4.67801 -22.5 22.0083
      vertex -1.62234 -22.5 4.99305
      vertex -0.983751 -22.5 5.15701
    endloop
  endfacet
  facet normal 0 -1 0
    outer loop
      vertex -9.15157 -22.5 20.5548
      vertex -2.23534 -22.5 4.75034
      vertex -1.62234 -22.5 4.99305
    endloop
  endfacet
  facet normal 0 -1 0
    outer loop
      vertex -5.08506 -22.5 1.30562
      vertex -21.3988 -22.5 6.95288
      vertex -22.0083 -22.5 4.67801
    endloop
  endfacet
  facet normal 0 -1 0
    outer loop
      vertex -11.25 -22.5 19.4856
      vertex -2.81309 -22.5 4.43272
      vertex -2.23534 -22.5 4.75034
    endloop
  endfacet
  facet normal 0 -1 0
    outer loop
      vertex -13.2252 -22.5 18.2029
      vertex -3.34648 -22.5 4.04519
      vertex -2.81309 -22.5 4.43272
    endloop
  endfacet
  facet normal 0 -1 0
    outer loop
      vertex -15.0554 -22.5 16.7208
      vertex -3.82708 -22.5 3.59387
      vertex -3.34648 -22.5 4.04519
    endloop
  endfacet
  facet normal 0 -1 0
    outer loop
      vertex -16.7208 -22.5 15.0554
      vertex -4.24734 -22.5 3.08587
      vertex -3.82708 -22.5 3.59387
    endloop
  endfacet
  facet normal 0 -1 0
    outer loop
      vertex -19.4856 -22.5 11.25
      vertex -4.60061 -22.5 2.52921
      vertex -4.24734 -22.5 3.08587
    endloop
  endfacet
  facet normal 0 -1 0
    outer loop
      vertex -5.2086 -22.5 0.657999
      vertex -22.0083 -22.5 4.67801
      vertex -22.3767 -22.5 2.35189
    endloop
  endfacet
  facet normal 0 -1 0
    outer loop
      vertex -20.5548 -22.5 9.15157
      vertex -4.88133 -22.5 1.93265
      vertex -4.60061 -22.5 2.52921
    endloop
  endfacet
  facet normal 0 -1 0
    outer loop
      vertex -21.3988 -22.5 6.95288
      vertex -5.08506 -22.5 1.30562
      vertex -4.88133 -22.5 1.93265
    endloop
  endfacet
  facet normal 0 -1 0
    outer loop
      vertex -22.0083 -22.5 4.67801
      vertex -5.2086 -22.5 0.657999
      vertex -5.08506 -22.5 1.30562
    endloop
  endfacet
  facet normal 0 -1 0
    outer loop
      vertex -5.25 -22.5 0
      vertex -22.3767 -22.5 2.35189
      vertex -22.5 -22.5 0
    endloop
  endfacet
  facet normal 0 -1 0
    outer loop
      vertex -22.3767 -22.5 2.35189
      vertex -5.25 -22.5 0
      vertex -5.2086 -22.5 0.657999
    endloop
  endfacet
  facet normal 0 -1 0
    outer loop
      vertex -22.5 -22.5 0
      vertex -5.2086 -22.5 -0.657999
      vertex -5.25 -22.5 0
    endloop
  endfacet
  facet normal 0 -1 0
    outer loop
      vertex -22.5 -22.5 0
      vertex -5.08506 -22.5 -1.30562
      vertex -5.2086 -22.5 -0.657999
    endloop
  endfacet
  facet normal 0 -1 0
    outer loop
      vertex -22.5 -22.5 0
      vertex -4.88133 -22.5 -1.93265
      vertex -5.08506 -22.5 -1.30562
    endloop
  endfacet
  facet normal 0 -1 0
    outer loop
      vertex -22.5 -22.5 0
      vertex -4.60061 -22.5 -2.52921
      vertex -4.88133 -22.5 -1.93265
    endloop
  endfacet
  facet normal 0 -1 0
    outer loop
      vertex -22.5 -22.5 0
      vertex -4.24734 -22.5 -3.08587
      vertex -4.60061 -22.5 -2.52921
    endloop
  endfacet
  facet normal 0 -1 0
    outer loop
      vertex -22.5 -22.5 -22.5
      vertex -4.24734 -22.5 -3.08587
      vertex -22.5 -22.5 0
    endloop
  endfacet
  facet normal 0 -1 -0
    outer loop
      vertex -4.24734 -22.5 -3.08587
      vertex -22.5 -22.5 -22.5
      vertex -3.82708 -22.5 -3.59387
    endloop
  endfacet
  facet normal 0 -1 -0
    outer loop
      vertex -3.82708 -22.5 -3.59387
      vertex -22.5 -22.5 -22.5
      vertex -3.34648 -22.5 -4.04519
    endloop
  endfacet
  facet normal 0 -1 -0
    outer loop
      vertex -3.34648 -22.5 -4.04519
      vertex -22.5 -22.5 -22.5
      vertex -2.81309 -22.5 -4.43272
    endloop
  endfacet
  facet normal 0 -1 -0
    outer loop
      vertex -2.81309 -22.5 -4.43272
      vertex -22.5 -22.5 -22.5
      vertex -2.23534 -22.5 -4.75034
    endloop
  endfacet
  facet normal 0 -1 -0
    outer loop
      vertex -2.23534 -22.5 -4.75034
      vertex -22.5 -22.5 -22.5
      vertex -1.62234 -22.5 -4.99305
    endloop
  endfacet
  facet normal 0 -1 -0
    outer loop
      vertex -0.32965 -22.5 -5.23964
      vertex -22.5 -22.5 -22.5
      vertex 0.32965 -22.5 -5.23964
    endloop
  endfacet
  facet normal 0 -1 -0
    outer loop
      vertex -0.983751 -22.5 -5.15701
      vertex -22.5 -22.5 -22.5
      vertex -0.32965 -22.5 -5.23964
    endloop
  endfacet
  facet normal 0 -1 -0
    outer loop
      vertex -1.62234 -22.5 -4.99305
      vertex -22.5 -22.5 -22.5
      vertex -0.983751 -22.5 -5.15701
    endloop
  endfacet
  facet normal 0 -1 -0
    outer loop
      vertex 13.2252 -22.5 18.2029
      vertex 3.34648 -22.5 4.04519
      vertex 15.0554 -22.5 16.7208
    endloop
  endfacet
  facet normal 0 -1 0
    outer loop
      vertex 3.82708 -22.5 3.59387
      vertex 15.0554 -22.5 16.7208
      vertex 3.34648 -22.5 4.04519
    endloop
  endfacet
  facet normal 0 -1 -0
    outer loop
      vertex 15.0554 -22.5 16.7208
      vertex 3.82708 -22.5 3.59387
      vertex 16.7208 -22.5 15.0554
    endloop
  endfacet
  facet normal 0 -1 0
    outer loop
      vertex 4.24734 -22.5 3.08587
      vertex 16.7208 -22.5 15.0554
      vertex 3.82708 -22.5 3.59387
    endloop
  endfacet
  facet normal 0 -1 -0
    outer loop
      vertex 16.7208 -22.5 15.0554
      vertex 4.24734 -22.5 3.08587
      vertex 18.2029 -22.5 13.2252
    endloop
  endfacet
  facet normal 0 -1 -0
    outer loop
      vertex 18.2029 -22.5 13.2252
      vertex 4.24734 -22.5 3.08587
      vertex 19.4856 -22.5 11.25
    endloop
  endfacet
  facet normal 0 -1 0
    outer loop
      vertex 4.60061 -22.5 2.52921
      vertex 19.4856 -22.5 11.25
      vertex 4.24734 -22.5 3.08587
    endloop
  endfacet
  facet normal 0 -1 -0
    outer loop
      vertex 19.4856 -22.5 11.25
      vertex 4.60061 -22.5 2.52921
      vertex 20.5548 -22.5 9.15157
    endloop
  endfacet
  facet normal 0 -1 0
    outer loop
      vertex 4.88133 -22.5 1.93265
      vertex 20.5548 -22.5 9.15157
      vertex 4.60061 -22.5 2.52921
    endloop
  endfacet
  facet normal 0 -1 -0
    outer loop
      vertex 20.5548 -22.5 9.15157
      vertex 4.88133 -22.5 1.93265
      vertex 21.3988 -22.5 6.95288
    endloop
  endfacet
  facet normal 0 -1 0
    outer loop
      vertex 5.08506 -22.5 1.30562
      vertex 21.3988 -22.5 6.95288
      vertex 4.88133 -22.5 1.93265
    endloop
  endfacet
  facet normal 0 -1 -0
    outer loop
      vertex 21.3988 -22.5 6.95288
      vertex 5.08506 -22.5 1.30562
      vertex 22.0083 -22.5 4.67801
    endloop
  endfacet
  facet normal 0 -1 0
    outer loop
      vertex 5.2086 -22.5 0.657999
      vertex 22.0083 -22.5 4.67801
      vertex 5.08506 -22.5 1.30562
    endloop
  endfacet
  facet normal 0 -1 -0
    outer loop
      vertex 22.0083 -22.5 4.67801
      vertex 5.2086 -22.5 0.657999
      vertex 22.3767 -22.5 2.35189
    endloop
  endfacet
  facet normal 0 -1 0
    outer loop
      vertex 5.25 -22.5 0
      vertex 22.3767 -22.5 2.35189
      vertex 5.2086 -22.5 0.657999
    endloop
  endfacet
  facet normal 0 -1 0
    outer loop
      vertex 5.25 -22.5 0
      vertex 22.5 -22.5 0
      vertex 22.3767 -22.5 2.35189
    endloop
  endfacet
  facet normal 0 -1 0
    outer loop
      vertex 5.2086 -22.5 -0.657999
      vertex 22.5 -22.5 0
      vertex 5.25 -22.5 0
    endloop
  endfacet
  facet normal 0 -1 0
    outer loop
      vertex 5.08506 -22.5 -1.30562
      vertex 22.5 -22.5 0
      vertex 5.2086 -22.5 -0.657999
    endloop
  endfacet
  facet normal 0 -1 0
    outer loop
      vertex 4.88133 -22.5 -1.93265
      vertex 22.5 -22.5 0
      vertex 5.08506 -22.5 -1.30562
    endloop
  endfacet
  facet normal 0 -1 0
    outer loop
      vertex 4.60061 -22.5 -2.52921
      vertex 22.5 -22.5 0
      vertex 4.88133 -22.5 -1.93265
    endloop
  endfacet
  facet normal 0 -1 0
    outer loop
      vertex 4.24734 -22.5 -3.08587
      vertex 22.5 -22.5 0
      vertex 4.60061 -22.5 -2.52921
    endloop
  endfacet
  facet normal 0 -1 0
    outer loop
      vertex 22.5 -22.5 -22.5
      vertex 4.24734 -22.5 -3.08587
      vertex 3.82708 -22.5 -3.59387
    endloop
  endfacet
  facet normal 0 -1 0
    outer loop
      vertex 22.5 -22.5 -22.5
      vertex 3.82708 -22.5 -3.59387
      vertex 3.34648 -22.5 -4.04519
    endloop
  endfacet
  facet normal 0 -1 0
    outer loop
      vertex 22.5 -22.5 -22.5
      vertex 3.34648 -22.5 -4.04519
      vertex 2.81309 -22.5 -4.43272
    endloop
  endfacet
  facet normal 0 -1 0
    outer loop
      vertex 22.5 -22.5 -22.5
      vertex 2.81309 -22.5 -4.43272
      vertex 2.23534 -22.5 -4.75034
    endloop
  endfacet
  facet normal 0 -1 0
    outer loop
      vertex 22.5 -22.5 -22.5
      vertex 2.23534 -22.5 -4.75034
      vertex 1.62234 -22.5 -4.99305
    endloop
  endfacet
  facet normal 0 -1 0
    outer loop
      vertex 22.5 -22.5 -22.5
      vertex 1.62234 -22.5 -4.99305
      vertex 0.983751 -22.5 -5.15701
    endloop
  endfacet
  facet normal 0 -1 0
    outer loop
      vertex 22.5 -22.5 -22.5
      vertex 0.32965 -22.5 -5.23964
      vertex -22.5 -22.5 -22.5
    endloop
  endfacet
  facet normal 0 -1 0
    outer loop
      vertex 0.32965 -22.5 -5.23964
      vertex 22.5 -22.5 -22.5
      vertex 0.983751 -22.5 -5.15701
    endloop
  endfacet
  facet normal 0 -1 0
    outer loop
      vertex 4.24734 -22.5 -3.08587
      vertex 22.5 -22.5 -22.5
      vertex 22.5 -22.5 0
    endloop
  endfacet
  facet normal -0.98769 0 0.156426
    outer loop
      vertex -22.3767 -22.5 2.35189
      vertex -22.0083 22.5 4.67801
      vertex -22.3767 22.5 2.35189
    endloop
  endfacet
  facet normal -0.98769 0 0.156426
    outer loop
      vertex -22.0083 22.5 4.67801
      vertex -22.3767 -22.5 2.35189
      vertex -22.0083 -22.5 4.67801
    endloop
  endfacet
  facet normal -0.93358 0 0.358369
    outer loop
      vertex -21.3988 -22.5 6.95288
      vertex -20.5548 22.5 9.15157
      vertex -21.3988 22.5 6.95288
    endloop
  endfacet
  facet normal -0.93358 0 0.358369
    outer loop
      vertex -20.5548 22.5 9.15157
      vertex -21.3988 -22.5 6.95288
      vertex -20.5548 -22.5 9.15157
    endloop
  endfacet
  facet normal -0.838672 0 0.544636
    outer loop
      vertex -19.4856 -22.5 11.25
      vertex -18.2029 22.5 13.2252
      vertex -19.4856 22.5 11.25
    endloop
  endfacet
  facet normal -0.838672 0 0.544636
    outer loop
      vertex -18.2029 22.5 13.2252
      vertex -19.4856 -22.5 11.25
      vertex -18.2029 -22.5 13.2252
    endloop
  endfacet
  facet normal -0.707107 0 0.707107
    outer loop
      vertex -16.7208 -22.5 15.0554
      vertex -15.0554 22.5 16.7208
      vertex -16.7208 22.5 15.0554
    endloop
  endfacet
  facet normal -0.707107 0 0.707107
    outer loop
      vertex -15.0554 22.5 16.7208
      vertex -16.7208 -22.5 15.0554
      vertex -15.0554 -22.5 16.7208
    endloop
  endfacet
  facet normal -0.777139 0 0.629329
    outer loop
      vertex -18.2029 -22.5 13.2252
      vertex -16.7208 22.5 15.0554
      vertex -18.2029 22.5 13.2252
    endloop
  endfacet
  facet normal -0.777139 0 0.629329
    outer loop
      vertex -16.7208 22.5 15.0554
      vertex -18.2029 -22.5 13.2252
      vertex -16.7208 -22.5 15.0554
    endloop
  endfacet
  facet normal -0.258799 0 0.965931
    outer loop
      vertex -6.95288 22.5 21.3988
      vertex -4.67801 -22.5 22.0083
      vertex -4.67801 22.5 22.0083
    endloop
  endfacet
  facet normal -0.258799 0 0.965931
    outer loop
      vertex -4.67801 -22.5 22.0083
      vertex -6.95288 22.5 21.3988
      vertex -6.95288 -22.5 21.3988
    endloop
  endfacet
  facet normal -0.052354 0 0.998629
    outer loop
      vertex -2.35189 22.5 22.3767
      vertex 0 -22.5 22.5
      vertex 0 22.5 22.5
    endloop
  endfacet
  facet normal -0.052354 0 0.998629
    outer loop
      vertex 0 -22.5 22.5
      vertex -2.35189 22.5 22.3767
      vertex -2.35189 -22.5 22.3767
    endloop
  endfacet
  facet normal -0.156426 0 0.98769
    outer loop
      vertex -4.67801 22.5 22.0083
      vertex -2.35189 -22.5 22.3767
      vertex -2.35189 22.5 22.3767
    endloop
  endfacet
  facet normal -0.156426 0 0.98769
    outer loop
      vertex -2.35189 -22.5 22.3767
      vertex -4.67801 22.5 22.0083
      vertex -4.67801 -22.5 22.0083
    endloop
  endfacet
  facet normal -1 0 0
    outer loop
      vertex -22.5 -22.5 -22.5
      vertex -22.5 22.5 0
      vertex -22.5 22.5 -22.5
    endloop
  endfacet
  facet normal -1 -0 0
    outer loop
      vertex -22.5 22.5 0
      vertex -22.5 -22.5 -22.5
      vertex -22.5 -22.5 0
    endloop
  endfacet
  facet normal 1 -0 0
    outer loop
      vertex 22.5 -22.5 0
      vertex 22.5 22.5 -22.5
      vertex 22.5 22.5 0
    endloop
  endfacet
  facet normal 1 0 0
    outer loop
      vertex 22.5 22.5 -22.5
      vertex 22.5 -22.5 0
      vertex 22.5 -22.5 -22.5
    endloop
  endfacet
  facet normal 0 0 -1
    outer loop
      vertex 22.5 -22.5 -22.5
      vertex 18.25 -17.25 -22.5
      vertex 22.5 22.5 -22.5
    endloop
  endfacet
  facet normal 0 0 -1
    outer loop
      vertex 22.5 -22.5 -22.5
      vertex 5.75 -17.25 -22.5
      vertex 18.25 -17.25 -22.5
    endloop
  endfacet
  facet normal 0 0 -1
    outer loop
      vertex 5.75 -17.25 -22.5
      vertex -5.75 -17.25 -22.5
      vertex 5.75 17.25 -22.5
    endloop
  endfacet
  facet normal 0 0 -1
    outer loop
      vertex 22.5 -22.5 -22.5
      vertex -5.75 -17.25 -22.5
      vertex 5.75 -17.25 -22.5
    endloop
  endfacet
  facet normal 0 0 -1
    outer loop
      vertex -22.5 -22.5 -22.5
      vertex -5.75 -17.25 -22.5
      vertex 22.5 -22.5 -22.5
    endloop
  endfacet
  facet normal -0 0 -1
    outer loop
      vertex -18.25 -17.25 -22.5
      vertex -22.5 -22.5 -22.5
      vertex -18.25 17.25 -22.5
    endloop
  endfacet
  facet normal -0 0 -1
    outer loop
      vertex -5.75 -17.25 -22.5
      vertex -22.5 -22.5 -22.5
      vertex -18.25 -17.25 -22.5
    endloop
  endfacet
  facet normal 0 0 -1
    outer loop
      vertex 18.25 17.25 -22.5
      vertex 22.5 22.5 -22.5
      vertex 18.25 -17.25 -22.5
    endloop
  endfacet
  facet normal 0 0 -1
    outer loop
      vertex 5.75 17.25 -22.5
      vertex 22.5 22.5 -22.5
      vertex 18.25 17.25 -22.5
    endloop
  endfacet
  facet normal 0 0 -1
    outer loop
      vertex -5.75 17.25 -22.5
      vertex 5.75 17.25 -22.5
      vertex -5.75 -17.25 -22.5
    endloop
  endfacet
  facet normal 0 0 -1
    outer loop
      vertex -5.75 17.25 -22.5
      vertex 22.5 22.5 -22.5
      vertex 5.75 17.25 -22.5
    endloop
  endfacet
  facet normal 0 0 -1
    outer loop
      vertex -22.5 22.5 -22.5
      vertex -5.75 17.25 -22.5
      vertex -18.25 17.25 -22.5
    endloop
  endfacet
  facet normal 0 0 -1
    outer loop
      vertex -5.75 17.25 -22.5
      vertex -22.5 22.5 -22.5
      vertex 22.5 22.5 -22.5
    endloop
  endfacet
  facet normal 0 0 -1
    outer loop
      vertex -22.5 22.5 -22.5
      vertex -18.25 17.25 -22.5
      vertex -22.5 -22.5 -22.5
    endloop
  endfacet
  facet normal 1 -0 0
    outer loop
      vertex -18.25 -17.25 0
      vertex -18.25 17.25 -22.5
      vertex -18.25 17.25 0
    endloop
  endfacet
  facet normal 1 0 0
    outer loop
      vertex -18.25 17.25 -22.5
      vertex -18.25 -17.25 0
      vertex -18.25 -17.25 -22.5
    endloop
  endfacet
  facet normal 0 0 -1
    outer loop
      vertex -18.25 -17.25 0
      vertex -5.75 17.25 0
      vertex -5.75 -17.25 0
    endloop
  endfacet
  facet normal -0 0 -1
    outer loop
      vertex -5.75 17.25 0
      vertex -18.25 -17.25 0
      vertex -18.25 17.25 0
    endloop
  endfacet
  facet normal -1 0 0
    outer loop
      vertex -5.75 -17.25 -22.5
      vertex -5.75 17.25 0
      vertex -5.75 17.25 -22.5
    endloop
  endfacet
  facet normal -1 -0 0
    outer loop
      vertex -5.75 17.25 0
      vertex -5.75 -17.25 -22.5
      vertex -5.75 -17.25 0
    endloop
  endfacet
  facet normal 0 1 -0
    outer loop
      vertex -5.75 -17.25 -22.5
      vertex -18.25 -17.25 0
      vertex -5.75 -17.25 0
    endloop
  endfacet
  facet normal 0 1 0
    outer loop
      vertex -18.25 -17.25 0
      vertex -5.75 -17.25 -22.5
      vertex -18.25 -17.25 -22.5
    endloop
  endfacet
  facet normal 0 -1 0
    outer loop
      vertex -18.25 17.25 -22.5
      vertex -5.75 17.25 0
      vertex -18.25 17.25 0
    endloop
  endfacet
  facet normal 0 -1 -0
    outer loop
      vertex -5.75 17.25 0
      vertex -18.25 17.25 -22.5
      vertex -5.75 17.25 -22.5
    endloop
  endfacet
  facet normal 1 -0 0
    outer loop
      vertex 5.75 -17.25 0
      vertex 5.75 17.25 -22.5
      vertex 5.75 17.25 0
    endloop
  endfacet
  facet normal 1 0 0
    outer loop
      vertex 5.75 17.25 -22.5
      vertex 5.75 -17.25 0
      vertex 5.75 -17.25 -22.5
    endloop
  endfacet
  facet normal 0 0 -1
    outer loop
      vertex 5.75 -17.25 0
      vertex 18.25 17.25 0
      vertex 18.25 -17.25 0
    endloop
  endfacet
  facet normal -0 0 -1
    outer loop
      vertex 18.25 17.25 0
      vertex 5.75 -17.25 0
      vertex 5.75 17.25 0
    endloop
  endfacet
  facet normal -1 0 0
    outer loop
      vertex 18.25 -17.25 -22.5
      vertex 18.25 17.25 0
      vertex 18.25 17.25 -22.5
    endloop
  endfacet
  facet normal -1 -0 0
    outer loop
      vertex 18.25 17.25 0
      vertex 18.25 -17.25 -22.5
      vertex 18.25 -17.25 0
    endloop
  endfacet
  facet normal 0 1 -0
    outer loop
      vertex 18.25 -17.25 -22.5
      vertex 5.75 -17.25 0
      vertex 18.25 -17.25 0
    endloop
  endfacet
  facet normal 0 1 0
    outer loop
      vertex 5.75 -17.25 0
      vertex 18.25 -17.25 -22.5
      vertex 5.75 -17.25 -22.5
    endloop
  endfacet
  facet normal 0 -1 0
    outer loop
      vertex 5.75 17.25 -22.5
      vertex 18.25 17.25 0
      vertex 5.75 17.25 0
    endloop
  endfacet
  facet normal 0 -1 -0
    outer loop
      vertex 18.25 17.25 0
      vertex 5.75 17.25 -22.5
      vertex 18.25 17.25 -22.5
    endloop
  endfacet
  facet normal -0.998027 0 -0.0627939
    outer loop
      vertex 5.25 -22.5 0
      vertex 5.2086 22.5 0.657999
      vertex 5.25 22.5 0
    endloop
  endfacet
  facet normal -0.998027 -0 -0.0627939
    outer loop
      vertex 5.2086 22.5 0.657999
      vertex 5.25 -22.5 0
      vertex 5.2086 -22.5 0.657999
    endloop
  endfacet
  facet normal -0.982287 0 -0.187381
    outer loop
      vertex 5.2086 -22.5 0.657999
      vertex 5.08506 22.5 1.30562
      vertex 5.2086 22.5 0.657999
    endloop
  endfacet
  facet normal -0.982287 -0 -0.187381
    outer loop
      vertex 5.08506 22.5 1.30562
      vertex 5.2086 -22.5 0.657999
      vertex 5.08506 -22.5 1.30562
    endloop
  endfacet
  facet normal 0.998027 0 -0.0627939
    outer loop
      vertex -5.2086 -22.5 0.657999
      vertex -5.25 22.5 0
      vertex -5.2086 22.5 0.657999
    endloop
  endfacet
  facet normal 0.998027 0 -0.0627939
    outer loop
      vertex -5.25 22.5 0
      vertex -5.2086 -22.5 0.657999
      vertex -5.25 -22.5 0
    endloop
  endfacet
  facet normal 0 0 -1
    outer loop
      vertex -0.32965 -22.5 5.23964
      vertex 0.32965 22.5 5.23964
      vertex 0.32965 -22.5 5.23964
    endloop
  endfacet
  facet normal -0 0 -1
    outer loop
      vertex 0.32965 22.5 5.23964
      vertex -0.32965 -22.5 5.23964
      vertex -0.32965 22.5 5.23964
    endloop
  endfacet
  facet normal -0.684552 0 -0.728964
    outer loop
      vertex 3.34648 -22.5 4.04519
      vertex 3.82708 22.5 3.59387
      vertex 3.82708 -22.5 3.59387
    endloop
  endfacet
  facet normal -0.684552 0 -0.728964
    outer loop
      vertex 3.82708 22.5 3.59387
      vertex 3.34648 -22.5 4.04519
      vertex 3.34648 22.5 4.04519
    endloop
  endfacet
  facet normal 0.684552 0 -0.728964
    outer loop
      vertex -3.82708 -22.5 3.59387
      vertex -3.34648 22.5 4.04519
      vertex -3.34648 -22.5 4.04519
    endloop
  endfacet
  facet normal 0.684552 0 -0.728964
    outer loop
      vertex -3.34648 22.5 4.04519
      vertex -3.82708 -22.5 3.59387
      vertex -3.82708 22.5 3.59387
    endloop
  endfacet
  facet normal 0.368133 0 -0.929773
    outer loop
      vertex -2.23534 -22.5 4.75034
      vertex -1.62234 22.5 4.99305
      vertex -1.62234 -22.5 4.99305
    endloop
  endfacet
  facet normal 0.368133 0 -0.929773
    outer loop
      vertex -1.62234 22.5 4.99305
      vertex -2.23534 -22.5 4.75034
      vertex -2.23534 22.5 4.75034
    endloop
  endfacet
  facet normal -0.770509 0 0.637429
    outer loop
      vertex 3.82708 -22.5 -3.59387
      vertex 4.24734 22.5 -3.08587
      vertex 3.82708 22.5 -3.59387
    endloop
  endfacet
  facet normal -0.770509 0 0.637429
    outer loop
      vertex 4.24734 22.5 -3.08587
      vertex 3.82708 -22.5 -3.59387
      vertex 4.24734 -22.5 -3.08587
    endloop
  endfacet
  facet normal -0.904827 0 -0.42578
    outer loop
      vertex 4.88133 -22.5 1.93265
      vertex 4.60061 22.5 2.52921
      vertex 4.88133 22.5 1.93265
    endloop
  endfacet
  facet normal -0.904827 -0 -0.42578
    outer loop
      vertex 4.60061 22.5 2.52921
      vertex 4.88133 -22.5 1.93265
      vertex 4.60061 -22.5 2.52921
    endloop
  endfacet
  facet normal -0.368133 0 -0.929773
    outer loop
      vertex 1.62234 -22.5 4.99305
      vertex 2.23534 22.5 4.75034
      vertex 2.23534 -22.5 4.75034
    endloop
  endfacet
  facet normal -0.368133 0 -0.929773
    outer loop
      vertex 2.23534 22.5 4.75034
      vertex 1.62234 -22.5 4.99305
      vertex 1.62234 22.5 4.99305
    endloop
  endfacet
  facet normal 0.904827 0 -0.42578
    outer loop
      vertex -4.60061 -22.5 2.52921
      vertex -4.88133 22.5 1.93265
      vertex -4.60061 22.5 2.52921
    endloop
  endfacet
  facet normal 0.904827 0 -0.42578
    outer loop
      vertex -4.88133 22.5 1.93265
      vertex -4.60061 -22.5 2.52921
      vertex -4.88133 -22.5 1.93265
    endloop
  endfacet
  facet normal 0.844326 0 -0.53583
    outer loop
      vertex -4.24734 -22.5 3.08587
      vertex -4.60061 22.5 2.52921
      vertex -4.24734 22.5 3.08587
    endloop
  endfacet
  facet normal 0.844326 0 -0.53583
    outer loop
      vertex -4.60061 22.5 2.52921
      vertex -4.24734 -22.5 3.08587
      vertex -4.60061 -22.5 2.52921
    endloop
  endfacet
  facet normal 0.982287 0 -0.187381
    outer loop
      vertex -5.08506 -22.5 1.30562
      vertex -5.2086 22.5 0.657999
      vertex -5.08506 22.5 1.30562
    endloop
  endfacet
  facet normal 0.982287 0 -0.187381
    outer loop
      vertex -5.2086 22.5 0.657999
      vertex -5.08506 -22.5 1.30562
      vertex -5.2086 -22.5 0.657999
    endloop
  endfacet
  facet normal -0.998027 0 0.0627939
    outer loop
      vertex 5.2086 -22.5 -0.657999
      vertex 5.25 22.5 0
      vertex 5.2086 22.5 -0.657999
    endloop
  endfacet
  facet normal -0.998027 0 0.0627939
    outer loop
      vertex 5.25 22.5 0
      vertex 5.2086 -22.5 -0.657999
      vertex 5.25 -22.5 0
    endloop
  endfacet
  facet normal 0.951058 -0 0.309011
    outer loop
      vertex -5.08506 -22.5 -1.30562
      vertex -4.88133 22.5 -1.93265
      vertex -5.08506 22.5 -1.30562
    endloop
  endfacet
  facet normal 0.951058 0 0.309011
    outer loop
      vertex -4.88133 22.5 -1.93265
      vertex -5.08506 -22.5 -1.30562
      vertex -4.88133 -22.5 -1.93265
    endloop
  endfacet
  facet normal -0.12533 0 0.992115
    outer loop
      vertex 0.32965 22.5 -5.23964
      vertex 0.983751 -22.5 -5.15701
      vertex 0.983751 22.5 -5.15701
    endloop
  endfacet
  facet normal -0.12533 0 0.992115
    outer loop
      vertex 0.983751 -22.5 -5.15701
      vertex 0.32965 22.5 -5.23964
      vertex 0.32965 -22.5 -5.23964
    endloop
  endfacet
  facet normal -0.770509 0 -0.637429
    outer loop
      vertex 4.24734 -22.5 3.08587
      vertex 3.82708 22.5 3.59387
      vertex 4.24734 22.5 3.08587
    endloop
  endfacet
  facet normal -0.770509 -0 -0.637429
    outer loop
      vertex 3.82708 22.5 3.59387
      vertex 4.24734 -22.5 3.08587
      vertex 3.82708 -22.5 3.59387
    endloop
  endfacet
  facet normal -0.844326 0 -0.53583
    outer loop
      vertex 4.60061 -22.5 2.52921
      vertex 4.24734 22.5 3.08587
      vertex 4.60061 22.5 2.52921
    endloop
  endfacet
  facet normal -0.844326 -0 -0.53583
    outer loop
      vertex 4.24734 22.5 3.08587
      vertex 4.60061 -22.5 2.52921
      vertex 4.24734 -22.5 3.08587
    endloop
  endfacet
  facet normal 0.481753 0 -0.876307
    outer loop
      vertex -2.81309 -22.5 4.43272
      vertex -2.23534 22.5 4.75034
      vertex -2.23534 -22.5 4.75034
    endloop
  endfacet
  facet normal 0.481753 0 -0.876307
    outer loop
      vertex -2.23534 22.5 4.75034
      vertex -2.81309 -22.5 4.43272
      vertex -2.81309 22.5 4.43272
    endloop
  endfacet
  facet normal -0.982287 0 0.187381
    outer loop
      vertex 5.08506 -22.5 -1.30562
      vertex 5.2086 22.5 -0.657999
      vertex 5.08506 22.5 -1.30562
    endloop
  endfacet
  facet normal -0.982287 0 0.187381
    outer loop
      vertex 5.2086 22.5 -0.657999
      vertex 5.08506 -22.5 -1.30562
      vertex 5.2086 -22.5 -0.657999
    endloop
  endfacet
  facet normal 0.844326 -0 0.53583
    outer loop
      vertex -4.60061 -22.5 -2.52921
      vertex -4.24734 22.5 -3.08587
      vertex -4.60061 22.5 -2.52921
    endloop
  endfacet
  facet normal 0.844326 0 0.53583
    outer loop
      vertex -4.24734 22.5 -3.08587
      vertex -4.60061 -22.5 -2.52921
      vertex -4.24734 -22.5 -3.08587
    endloop
  endfacet
  facet normal 0.904827 -0 0.42578
    outer loop
      vertex -4.88133 -22.5 -1.93265
      vertex -4.60061 22.5 -2.52921
      vertex -4.88133 22.5 -1.93265
    endloop
  endfacet
  facet normal 0.904827 0 0.42578
    outer loop
      vertex -4.60061 22.5 -2.52921
      vertex -4.88133 -22.5 -1.93265
      vertex -4.60061 -22.5 -2.52921
    endloop
  endfacet
  facet normal 0.998027 -0 0.0627939
    outer loop
      vertex -5.25 -22.5 0
      vertex -5.2086 22.5 -0.657999
      vertex -5.25 22.5 0
    endloop
  endfacet
  facet normal 0.998027 0 0.0627939
    outer loop
      vertex -5.2086 22.5 -0.657999
      vertex -5.25 -22.5 0
      vertex -5.2086 -22.5 -0.657999
    endloop
  endfacet
  facet normal -0 0 1
    outer loop
      vertex -0.32965 22.5 -5.23964
      vertex 0.32965 -22.5 -5.23964
      vertex 0.32965 22.5 -5.23964
    endloop
  endfacet
  facet normal 0 0 1
    outer loop
      vertex 0.32965 -22.5 -5.23964
      vertex -0.32965 22.5 -5.23964
      vertex -0.32965 -22.5 -5.23964
    endloop
  endfacet
  facet normal -0.368133 0 0.929773
    outer loop
      vertex 1.62234 22.5 -4.99305
      vertex 2.23534 -22.5 -4.75034
      vertex 2.23534 22.5 -4.75034
    endloop
  endfacet
  facet normal -0.368133 0 0.929773
    outer loop
      vertex 2.23534 -22.5 -4.75034
      vertex 1.62234 22.5 -4.99305
      vertex 1.62234 -22.5 -4.99305
    endloop
  endfacet
  facet normal -0.951058 0 -0.309011
    outer loop
      vertex 5.08506 -22.5 1.30562
      vertex 4.88133 22.5 1.93265
      vertex 5.08506 22.5 1.30562
    endloop
  endfacet
  facet normal -0.951058 -0 -0.309011
    outer loop
      vertex 4.88133 22.5 1.93265
      vertex 5.08506 -22.5 1.30562
      vertex 4.88133 -22.5 1.93265
    endloop
  endfacet
  facet normal -0.248687 0 -0.968584
    outer loop
      vertex 0.983751 -22.5 5.15701
      vertex 1.62234 22.5 4.99305
      vertex 1.62234 -22.5 4.99305
    endloop
  endfacet
  facet normal -0.248687 0 -0.968584
    outer loop
      vertex 1.62234 22.5 4.99305
      vertex 0.983751 -22.5 5.15701
      vertex 0.983751 22.5 5.15701
    endloop
  endfacet
  facet normal -0.12533 0 -0.992115
    outer loop
      vertex 0.32965 -22.5 5.23964
      vertex 0.983751 22.5 5.15701
      vertex 0.983751 -22.5 5.15701
    endloop
  endfacet
  facet normal -0.12533 0 -0.992115
    outer loop
      vertex 0.983751 22.5 5.15701
      vertex 0.32965 -22.5 5.23964
      vertex 0.32965 22.5 5.23964
    endloop
  endfacet
  facet normal -0.587785 0 -0.809017
    outer loop
      vertex 2.81309 -22.5 4.43272
      vertex 3.34648 22.5 4.04519
      vertex 3.34648 -22.5 4.04519
    endloop
  endfacet
  facet normal -0.587785 0 -0.809017
    outer loop
      vertex 3.34648 22.5 4.04519
      vertex 2.81309 -22.5 4.43272
      vertex 2.81309 22.5 4.43272
    endloop
  endfacet
  facet normal -0.481753 0 -0.876307
    outer loop
      vertex 2.23534 -22.5 4.75034
      vertex 2.81309 22.5 4.43272
      vertex 2.81309 -22.5 4.43272
    endloop
  endfacet
  facet normal -0.481753 0 -0.876307
    outer loop
      vertex 2.81309 22.5 4.43272
      vertex 2.23534 -22.5 4.75034
      vertex 2.23534 22.5 4.75034
    endloop
  endfacet
  facet normal 0.770509 0 -0.637429
    outer loop
      vertex -3.82708 -22.5 3.59387
      vertex -4.24734 22.5 3.08587
      vertex -3.82708 22.5 3.59387
    endloop
  endfacet
  facet normal 0.770509 0 -0.637429
    outer loop
      vertex -4.24734 22.5 3.08587
      vertex -3.82708 -22.5 3.59387
      vertex -4.24734 -22.5 3.08587
    endloop
  endfacet
  facet normal 0.951058 0 -0.309011
    outer loop
      vertex -4.88133 -22.5 1.93265
      vertex -5.08506 22.5 1.30562
      vertex -4.88133 22.5 1.93265
    endloop
  endfacet
  facet normal 0.951058 0 -0.309011
    outer loop
      vertex -5.08506 22.5 1.30562
      vertex -4.88133 -22.5 1.93265
      vertex -5.08506 -22.5 1.30562
    endloop
  endfacet
  facet normal 0.587785 0 -0.809017
    outer loop
      vertex -3.34648 -22.5 4.04519
      vertex -2.81309 22.5 4.43272
      vertex -2.81309 -22.5 4.43272
    endloop
  endfacet
  facet normal 0.587785 0 -0.809017
    outer loop
      vertex -2.81309 22.5 4.43272
      vertex -3.34648 -22.5 4.04519
      vertex -3.34648 22.5 4.04519
    endloop
  endfacet
  facet normal 0.12533 0 -0.992115
    outer loop
      vertex -0.983751 -22.5 5.15701
      vertex -0.32965 22.5 5.23964
      vertex -0.32965 -22.5 5.23964
    endloop
  endfacet
  facet normal 0.12533 0 -0.992115
    outer loop
      vertex -0.32965 22.5 5.23964
      vertex -0.983751 -22.5 5.15701
      vertex -0.983751 22.5 5.15701
    endloop
  endfacet
  facet normal 0.248687 0 -0.968584
    outer loop
      vertex -1.62234 -22.5 4.99305
      vertex -0.983751 22.5 5.15701
      vertex -0.983751 -22.5 5.15701
    endloop
  endfacet
  facet normal 0.248687 0 -0.968584
    outer loop
      vertex -0.983751 22.5 5.15701
      vertex -1.62234 -22.5 4.99305
      vertex -1.62234 22.5 4.99305
    endloop
  endfacet
  facet normal -0.844326 0 0.53583
    outer loop
      vertex 4.24734 -22.5 -3.08587
      vertex 4.60061 22.5 -2.52921
      vertex 4.24734 22.5 -3.08587
    endloop
  endfacet
  facet normal -0.844326 0 0.53583
    outer loop
      vertex 4.60061 22.5 -2.52921
      vertex 4.24734 -22.5 -3.08587
      vertex 4.60061 -22.5 -2.52921
    endloop
  endfacet
  facet normal 0.12533 0 0.992115
    outer loop
      vertex -0.983751 22.5 -5.15701
      vertex -0.32965 -22.5 -5.23964
      vertex -0.32965 22.5 -5.23964
    endloop
  endfacet
  facet normal 0.12533 0 0.992115
    outer loop
      vertex -0.32965 -22.5 -5.23964
      vertex -0.983751 22.5 -5.15701
      vertex -0.983751 -22.5 -5.15701
    endloop
  endfacet
  facet normal 0.770509 -0 0.637429
    outer loop
      vertex -4.24734 -22.5 -3.08587
      vertex -3.82708 22.5 -3.59387
      vertex -4.24734 22.5 -3.08587
    endloop
  endfacet
  facet normal 0.770509 0 0.637429
    outer loop
      vertex -3.82708 22.5 -3.59387
      vertex -4.24734 -22.5 -3.08587
      vertex -3.82708 -22.5 -3.59387
    endloop
  endfacet
  facet normal 0.982287 -0 0.187381
    outer loop
      vertex -5.2086 -22.5 -0.657999
      vertex -5.08506 22.5 -1.30562
      vertex -5.2086 22.5 -0.657999
    endloop
  endfacet
  facet normal 0.982287 0 0.187381
    outer loop
      vertex -5.08506 22.5 -1.30562
      vertex -5.2086 -22.5 -0.657999
      vertex -5.08506 -22.5 -1.30562
    endloop
  endfacet
  facet normal -0.481753 0 0.876307
    outer loop
      vertex 2.23534 22.5 -4.75034
      vertex 2.81309 -22.5 -4.43272
      vertex 2.81309 22.5 -4.43272
    endloop
  endfacet
  facet normal -0.481753 0 0.876307
    outer loop
      vertex 2.81309 -22.5 -4.43272
      vertex 2.23534 22.5 -4.75034
      vertex 2.23534 -22.5 -4.75034
    endloop
  endfacet
  facet normal -0.248687 0 0.968584
    outer loop
      vertex 0.983751 22.5 -5.15701
      vertex 1.62234 -22.5 -4.99305
      vertex 1.62234 22.5 -4.99305
    endloop
  endfacet
  facet normal -0.248687 0 0.968584
    outer loop
      vertex 1.62234 -22.5 -4.99305
      vertex 0.983751 22.5 -5.15701
      vertex 0.983751 -22.5 -5.15701
    endloop
  endfacet
  facet normal -0.904827 0 0.42578
    outer loop
      vertex 4.60061 -22.5 -2.52921
      vertex 4.88133 22.5 -1.93265
      vertex 4.60061 22.5 -2.52921
    endloop
  endfacet
  facet normal -0.904827 0 0.42578
    outer loop
      vertex 4.88133 22.5 -1.93265
      vertex 4.60061 -22.5 -2.52921
      vertex 4.88133 -22.5 -1.93265
    endloop
  endfacet
  facet normal -0.951058 0 0.309011
    outer loop
      vertex 4.88133 -22.5 -1.93265
      vertex 5.08506 22.5 -1.30562
      vertex 4.88133 22.5 -1.93265
    endloop
  endfacet
  facet normal -0.951058 0 0.309011
    outer loop
      vertex 5.08506 22.5 -1.30562
      vertex 4.88133 -22.5 -1.93265
      vertex 5.08506 -22.5 -1.30562
    endloop
  endfacet
  facet normal 0.368133 0 0.929773
    outer loop
      vertex -2.23534 22.5 -4.75034
      vertex -1.62234 -22.5 -4.99305
      vertex -1.62234 22.5 -4.99305
    endloop
  endfacet
  facet normal 0.368133 0 0.929773
    outer loop
      vertex -1.62234 -22.5 -4.99305
      vertex -2.23534 22.5 -4.75034
      vertex -2.23534 -22.5 -4.75034
    endloop
  endfacet
  facet normal 0.684552 0 0.728964
    outer loop
      vertex -3.82708 22.5 -3.59387
      vertex -3.34648 -22.5 -4.04519
      vertex -3.34648 22.5 -4.04519
    endloop
  endfacet
  facet normal 0.684552 0 0.728964
    outer loop
      vertex -3.34648 -22.5 -4.04519
      vertex -3.82708 22.5 -3.59387
      vertex -3.82708 -22.5 -3.59387
    endloop
  endfacet
  facet normal 0.481753 0 0.876307
    outer loop
      vertex -2.81309 22.5 -4.43272
      vertex -2.23534 -22.5 -4.75034
      vertex -2.23534 22.5 -4.75034
    endloop
  endfacet
  facet normal 0.481753 0 0.876307
    outer loop
      vertex -2.23534 -22.5 -4.75034
      vertex -2.81309 22.5 -4.43272
      vertex -2.81309 -22.5 -4.43272
    endloop
  endfacet
  facet normal -0.587785 0 0.809017
    outer loop
      vertex 2.81309 22.5 -4.43272
      vertex 3.34648 -22.5 -4.04519
      vertex 3.34648 22.5 -4.04519
    endloop
  endfacet
  facet normal -0.587785 0 0.809017
    outer loop
      vertex 3.34648 -22.5 -4.04519
      vertex 2.81309 22.5 -4.43272
      vertex 2.81309 -22.5 -4.43272
    endloop
  endfacet
  facet normal -0.684552 0 0.728964
    outer loop
      vertex 3.34648 22.5 -4.04519
      vertex 3.82708 -22.5 -3.59387
      vertex 3.82708 22.5 -3.59387
    endloop
  endfacet
  facet normal -0.684552 0 0.728964
    outer loop
      vertex 3.82708 -22.5 -3.59387
      vertex 3.34648 22.5 -4.04519
      vertex 3.34648 -22.5 -4.04519
    endloop
  endfacet
  facet normal 0.248687 0 0.968584
    outer loop
      vertex -1.62234 22.5 -4.99305
      vertex -0.983751 -22.5 -5.15701
      vertex -0.983751 22.5 -5.15701
    endloop
  endfacet
  facet normal 0.248687 0 0.968584
    outer loop
      vertex -0.983751 -22.5 -5.15701
      vertex -1.62234 22.5 -4.99305
      vertex -1.62234 -22.5 -4.99305
    endloop
  endfacet
  facet normal 0.587785 0 0.809017
    outer loop
      vertex -3.34648 22.5 -4.04519
      vertex -2.81309 -22.5 -4.43272
      vertex -2.81309 22.5 -4.43272
    endloop
  endfacet
  facet normal 0.587785 0 0.809017
    outer loop
      vertex -2.81309 -22.5 -4.43272
      vertex -3.34648 22.5 -4.04519
      vertex -3.34648 -22.5 -4.04519
    endloop
  endfacet
endsolid OpenSCAD_Model
